KumbhSans-Thin.ufo
<glyph name="exclam" format="2">
  <advance width="454"/>
  <unicode hex="0021"/>
  <outline>
    <contour>
      <point x="248" y="390" type="line"/>
      <point x="248" y="1500" type="line"/>
      <point x="206" y="1500" type="line"/>
      <point x="206" y="390" type="line"/>
    </contour>
    <contour>
      <point x="227" y="-20" type="curve" smooth="yes"/>
      <point x="255.571" y="-20"/>
      <point x="277" y="1.429"/>
      <point x="277" y="30" type="curve" smooth="yes"/>
      <point x="277" y="57.381"/>
      <point x="255.571" y="80"/>
      <point x="227" y="80" type="curve" smooth="yes"/>
      <point x="198.429" y="80"/>
      <point x="177" y="57.381"/>
      <point x="177" y="30" type="curve" smooth="yes"/>
      <point x="177" y="1.429"/>
      <point x="198.429" y="-20"/>
    </contour>
  </outline>
</glyph>
<glyph name="percent" format="1">
  <advance width="1842"/>
  <unicode hex="0025"/>
  <outline>
    <contour>
      <point x="499" y="873" type="curve" smooth="yes"/>
      <point x="693" y="873"/>
      <point x="823" y="1002"/>
      <point x="823" y="1196" type="curve" smooth="yes"/>
      <point x="823" y="1391"/>
      <point x="694" y="1520"/>
      <point x="499" y="1520" type="curve" smooth="yes"/>
      <point x="305" y="1520"/>
      <point x="175" y="1391"/>
      <point x="175" y="1196" type="curve" smooth="yes"/>
      <point x="175" y="1002"/>
      <point x="305" y="873"/>
    </contour>
    <contour>
      <point x="464" y="0" type="line"/>
      <point x="1431" y="1500" type="line"/>
      <point x="1379" y="1500" type="line"/>
      <point x="412" y="0" type="line"/>
    </contour>
    <contour>
      <point x="499" y="915" type="curve" smooth="yes"/>
      <point x="331" y="915"/>
      <point x="220" y="1027"/>
      <point x="220" y="1196" type="curve" smooth="yes"/>
      <point x="220" y="1366"/>
      <point x="331" y="1478"/>
      <point x="499" y="1478" type="curve" smooth="yes"/>
      <point x="666" y="1478"/>
      <point x="778" y="1365"/>
      <point x="778" y="1196" type="curve" smooth="yes"/>
      <point x="778" y="1028"/>
      <point x="666" y="915"/>
    </contour>
    <contour>
      <point x="1343" y="-20" type="curve" smooth="yes"/>
      <point x="1537" y="-20"/>
      <point x="1667" y="109"/>
      <point x="1667" y="303" type="curve" smooth="yes"/>
      <point x="1667" y="498"/>
      <point x="1538" y="627"/>
      <point x="1343" y="627" type="curve" smooth="yes"/>
      <point x="1149" y="627"/>
      <point x="1019" y="498"/>
      <point x="1019" y="303" type="curve" smooth="yes"/>
      <point x="1019" y="109"/>
      <point x="1149" y="-20"/>
    </contour>
    <contour>
      <point x="1343" y="22" type="curve" smooth="yes"/>
      <point x="1175" y="22"/>
      <point x="1064" y="134"/>
      <point x="1064" y="303" type="curve" smooth="yes"/>
      <point x="1064" y="473"/>
      <point x="1175" y="585"/>
      <point x="1343" y="585" type="curve" smooth="yes"/>
      <point x="1510" y="585"/>
      <point x="1622" y="472"/>
      <point x="1622" y="303" type="curve" smooth="yes"/>
      <point x="1622" y="135"/>
      <point x="1510" y="22"/>
    </contour>
  </outline>
</glyph>
<glyph name="ampersand" format="2">
  <advance width="1518"/>
  <unicode hex="0026"/>
  <outline>
    <contour>
      <point x="1413" y="15" type="line"/>
      <point x="1312" y="85"/>
      <point x="1216" y="156"/>
      <point x="1126" y="229" type="curve"/>
      <point x="1232" y="356"/>
      <point x="1324" y="529"/>
      <point x="1399" y="745" type="curve"/>
      <point x="1357" y="757" type="line"/>
      <point x="1285" y="549"/>
      <point x="1196" y="381"/>
      <point x="1092" y="258" type="curve"/>
      <point x="870" y="442"/>
      <point x="688" y="631"/>
      <point x="563" y="803" type="curve"/>
      <point x="751" y="898"/>
      <point x="941" y="993"/>
      <point x="941" y="1223" type="curve" smooth="yes"/>
      <point x="941" y="1405"/>
      <point x="821" y="1530"/>
      <point x="646" y="1530" type="curve" smooth="yes"/>
      <point x="467" y="1530"/>
      <point x="335" y="1400"/>
      <point x="335" y="1226" type="curve" smooth="yes"/>
      <point x="335" y="1111"/>
      <point x="392" y="971"/>
      <point x="497" y="817" type="curve"/>
      <point x="322" y="727"/>
      <point x="155" y="624"/>
      <point x="155" y="394" type="curve" smooth="yes"/>
      <point x="155" y="146"/>
      <point x="350" y="-30"/>
      <point x="622" y="-30" type="curve" smooth="yes"/>
      <point x="802" y="-30"/>
      <point x="961" y="47"/>
      <point x="1098" y="197" type="curve"/>
      <point x="1188" y="124"/>
      <point x="1285" y="50"/>
      <point x="1387" y="-22" type="curve"/>
    </contour>
    <contour>
      <point x="538" y="838" type="curve"/>
      <point x="437" y="986"/>
      <point x="380" y="1120"/>
      <point x="380" y="1227" type="curve" smooth="yes"/>
      <point x="380" y="1377"/>
      <point x="493" y="1488"/>
      <point x="645" y="1488" type="curve" smooth="yes"/>
      <point x="794" y="1488"/>
      <point x="896" y="1380"/>
      <point x="896" y="1223" type="curve" smooth="yes"/>
      <point x="896" y="1017"/>
      <point x="719" y="929"/>
    </contour>
    <contour>
      <point x="522" y="782" type="curve"/>
      <point x="648" y="607"/>
      <point x="833" y="416"/>
      <point x="1063" y="225" type="curve"/>
      <point x="934" y="85"/>
      <point x="784" y="12"/>
      <point x="620" y="12" type="curve" smooth="yes"/>
      <point x="377" y="12"/>
      <point x="200" y="173"/>
      <point x="200" y="394" type="curve" smooth="yes"/>
      <point x="200" y="600"/>
      <point x="354" y="695"/>
    </contour>
  </outline>
</glyph>
<glyph name="quotesingle" format="1">
  <advance width="425"/>
  <unicode hex="0027"/>
  <outline>
    <contour>
      <point x="232" y="1085" type="line"/>
      <point x="240" y="1520" type="line"/>
      <point x="185" y="1520" type="line"/>
      <point x="193" y="1085" type="line"/>
    </contour>
  </outline>
</glyph>
<glyph name="parenleft" format="2">
  <advance width="642"/>
  <unicode hex="0028"/>
  <outline>
    <contour>
      <point x="457" y="-289" type="line" name="av02"/>
      <point x="256" y="-25"/>
      <point x="146" y="297"/>
      <point x="146" y="626" type="curve" smooth="yes" name="dh02"/>
      <point x="146" y="956"/>
      <point x="255" y="1277"/>
      <point x="457" y="1540" type="curve" name="av01"/>
      <point x="406" y="1540" type="line"/>
      <point x="210" y="1274"/>
      <point x="105" y="956"/>
      <point x="105" y="625" type="curve" smooth="yes" name="dh01"/>
      <point x="105" y="294"/>
      <point x="210" y="-24"/>
      <point x="406" y="-289" type="curve"/>
    </contour>
  </outline>
</glyph>
<glyph name="plus" format="2">
  <advance width="1160"/>
  <unicode hex="002B"/>
  <outline>
    <contour>
      <point x="975" y="486" type="line"/>
      <point x="975" y="524" type="line"/>
      <point x="601" y="524" type="line"/>
      <point x="601" y="908" type="line"/>
      <point x="560" y="908" type="line"/>
      <point x="560" y="524" type="line"/>
      <point x="185" y="524" type="line"/>
      <point x="185" y="486" type="line"/>
      <point x="560" y="486" type="line"/>
      <point x="560" y="102" type="line"/>
      <point x="601" y="102" type="line"/>
      <point x="601" y="486" type="line"/>
    </contour>
  </outline>
</glyph>
<glyph name="period" format="2">
  <advance width="434"/>
  <unicode hex="002E"/>
  <outline>
    <contour>
      <point x="217" y="-20" type="curve" smooth="yes"/>
      <point x="245.571" y="-20"/>
      <point x="267" y="1.429"/>
      <point x="267" y="30" type="curve" smooth="yes"/>
      <point x="267" y="57.381"/>
      <point x="245.571" y="80"/>
      <point x="217" y="80" type="curve" smooth="yes"/>
      <point x="188.429" y="80"/>
      <point x="167" y="57.381"/>
      <point x="167" y="30" type="curve" smooth="yes"/>
      <point x="167" y="1.429"/>
      <point x="188.429" y="-20"/>
    </contour>
  </outline>
</glyph>
<glyph name="zero" format="1">
  <advance width="1144"/>
  <unicode hex="0030"/>
  <outline>
    <contour>
      <point x="572" y="-30" type="curve" smooth="yes"/>
      <point x="870" y="-30"/>
      <point x="1039" y="253"/>
      <point x="1039" y="751" type="curve" smooth="yes"/>
      <point x="1039" y="1247"/>
      <point x="869" y="1530"/>
      <point x="572" y="1530" type="curve" smooth="yes"/>
      <point x="275" y="1530"/>
      <point x="105" y="1247"/>
      <point x="105" y="751" type="curve" smooth="yes"/>
      <point x="105" y="253"/>
      <point x="274" y="-30"/>
    </contour>
    <contour>
      <point x="572" y="12" type="curve" smooth="yes"/>
      <point x="308" y="12"/>
      <point x="150" y="289"/>
      <point x="150" y="751" type="curve" smooth="yes"/>
      <point x="150" y="1212"/>
      <point x="308" y="1488"/>
      <point x="572" y="1488" type="curve" smooth="yes"/>
      <point x="836" y="1488"/>
      <point x="994" y="1212"/>
      <point x="994" y="751" type="curve" smooth="yes"/>
      <point x="994" y="289"/>
      <point x="836" y="12"/>
    </contour>
  </outline>
</glyph>
<glyph name="two" format="1">
  <advance width="1250"/>
  <unicode hex="0032"/>
  <outline>
    <contour>
      <point x="1075" y="0" type="line"/>
      <point x="1075" y="42" type="line"/>
      <point x="290" y="42" type="line"/>
      <point x="766" y="424"/>
      <point x="1022" y="791"/>
      <point x="1022" y="1098" type="curve" smooth="yes"/>
      <point x="1022" y="1348"/>
      <point x="853" y="1530"/>
      <point x="614" y="1530" type="curve" smooth="yes"/>
      <point x="434" y="1530"/>
      <point x="275" y="1427"/>
      <point x="185" y="1252" type="curve"/>
      <point x="224" y="1232" type="line"/>
      <point x="309" y="1392"/>
      <point x="456" y="1488"/>
      <point x="618" y="1488" type="curve" smooth="yes"/>
      <point x="828" y="1488"/>
      <point x="977" y="1326"/>
      <point x="977" y="1092" type="curve" smooth="yes"/>
      <point x="977" y="798"/>
      <point x="741" y="465"/>
      <point x="229" y="42" type="curve"/>
      <point x="229" y="0" type="line"/>
    </contour>
  </outline>
</glyph>
<glyph name="four" format="1">
  <advance width="1226"/>
  <unicode hex="0034"/>
  <outline>
    <contour>
      <point x="938" y="0" type="line"/>
      <point x="938" y="411" type="line"/>
      <point x="1121" y="411" type="line"/>
      <point x="1121" y="452" type="line"/>
      <point x="938" y="452" type="line"/>
      <point x="938" y="1500" type="line"/>
      <point x="894" y="1500" type="line"/>
      <point x="105" y="453" type="line"/>
      <point x="105" y="411" type="line"/>
      <point x="894" y="411" type="line"/>
      <point x="894" y="0" type="line"/>
    </contour>
    <contour>
      <point x="157" y="452" type="line"/>
      <point x="894" y="1429" type="line"/>
      <point x="894" y="452" type="line"/>
    </contour>
  </outline>
</glyph>
<glyph name="five" format="2">
  <advance width="1089"/>
  <unicode hex="0035"/>
  <outline>
    <contour>
      <point x="105" y="169" type="line"/>
      <point x="188" y="41"/>
      <point x="331" y="-30"/>
      <point x="506" y="-30" type="curve" smooth="yes"/>
      <point x="792" y="-30"/>
      <point x="984" y="162"/>
      <point x="984" y="449" type="curve" smooth="yes"/>
      <point x="984" y="736"/>
      <point x="792" y="927"/>
      <point x="506" y="927" type="curve" smooth="yes"/>
      <point x="415" y="927"/>
      <point x="331" y="908"/>
      <point x="260" y="870" type="curve"/>
      <point x="320" y="1458" type="line"/>
      <point x="938" y="1458" type="line"/>
      <point x="938" y="1500" type="line"/>
      <point x="279" y="1500" type="line"/>
      <point x="213" y="833" type="line"/>
      <point x="243" y="808" type="line"/>
      <point x="315" y="859"/>
      <point x="405" y="885"/>
      <point x="505" y="885" type="curve" smooth="yes"/>
      <point x="766" y="885"/>
      <point x="939" y="711"/>
      <point x="939" y="449" type="curve" smooth="yes"/>
      <point x="939" y="187"/>
      <point x="765" y="12"/>
      <point x="504" y="12" type="curve" smooth="yes"/>
      <point x="345" y="12"/>
      <point x="215" y="78"/>
      <point x="139" y="198" type="curve"/>
    </contour>
  </outline>
</glyph>
<glyph name="seven" format="2">
  <advance width="1054"/>
  <unicode hex="0037"/>
  <outline>
    <contour>
      <point x="347" y="0" type="line"/>
      <point x="949" y="1458" type="line"/>
      <point x="949" y="1500" type="line"/>
      <point x="105" y="1500" type="line"/>
      <point x="105" y="1458" type="line"/>
      <point x="901" y="1458" type="line"/>
      <point x="300" y="0" type="line"/>
    </contour>
  </outline>
</glyph>
<glyph name="eight" format="1">
  <advance width="1175"/>
  <unicode hex="0038"/>
  <outline>
    <contour>
      <point x="587" y="-30" type="curve" smooth="yes"/>
      <point x="859" y="-30"/>
      <point x="1040" y="138"/>
      <point x="1040" y="389" type="curve" smooth="yes"/>
      <point x="1040" y="597"/>
      <point x="916" y="747"/>
      <point x="720" y="793" type="curve"/>
      <point x="884" y="838"/>
      <point x="986" y="970"/>
      <point x="986" y="1152" type="curve" smooth="yes"/>
      <point x="986" y="1381"/>
      <point x="828" y="1530"/>
      <point x="587" y="1530" type="curve" smooth="yes"/>
      <point x="346" y="1530"/>
      <point x="188" y="1381"/>
      <point x="188" y="1152" type="curve" smooth="yes"/>
      <point x="188" y="970"/>
      <point x="290" y="838"/>
      <point x="454" y="793" type="curve"/>
      <point x="259" y="747"/>
      <point x="135" y="596"/>
      <point x="135" y="388" type="curve" smooth="yes"/>
      <point x="135" y="136"/>
      <point x="315" y="-30"/>
    </contour>
    <contour>
      <point x="587" y="818" type="curve" smooth="yes"/>
      <point x="376" y="818"/>
      <point x="233" y="953"/>
      <point x="233" y="1152" type="curve" smooth="yes"/>
      <point x="233" y="1352"/>
      <point x="376" y="1488"/>
      <point x="587" y="1488" type="curve" smooth="yes"/>
      <point x="798" y="1488"/>
      <point x="941" y="1352"/>
      <point x="941" y="1152" type="curve" smooth="yes"/>
      <point x="941" y="953"/>
      <point x="797" y="818"/>
    </contour>
    <contour>
      <point x="587" y="12" type="curve" smooth="yes"/>
      <point x="345" y="12"/>
      <point x="180" y="164"/>
      <point x="180" y="388" type="curve" smooth="yes"/>
      <point x="180" y="613"/>
      <point x="344" y="766"/>
      <point x="587" y="766" type="curve" smooth="yes"/>
      <point x="830" y="766"/>
      <point x="995" y="613"/>
      <point x="995" y="388" type="curve" smooth="yes"/>
      <point x="995" y="164"/>
      <point x="830" y="12"/>
    </contour>
  </outline>
</glyph>
<glyph name="less" format="2">
  <advance width="1243"/>
  <unicode hex="003C"/>
  <outline>
    <contour>
      <point x="1058" y="0" type="line"/>
      <point x="1058" y="49" type="line"/>
      <point x="143" y="515" type="line"/>
      <point x="1058" y="971" type="line"/>
      <point x="1058" y="1020" type="line"/>
      <point x="105" y="545" type="line"/>
      <point x="105" y="485" type="line"/>
    </contour>
  </outline>
</glyph>
<glyph name="greater" format="2">
  <advance width="1243"/>
  <unicode hex="003E"/>
  <outline>
    <contour>
      <point x="185" y="0" type="line"/>
      <point x="1138" y="485" type="line"/>
      <point x="1138" y="545" type="line"/>
      <point x="185" y="1020" type="line"/>
      <point x="185" y="971" type="line"/>
      <point x="1100" y="515" type="line"/>
      <point x="185" y="49" type="line"/>
    </contour>
  </outline>
</glyph>
<glyph name="at" format="1">
  <advance width="1948"/>
  <unicode hex="0040"/>
  <outline>
    <contour>
      <point x="914" y="87" type="curve" smooth="yes"/>
      <point x="1092" y="87"/>
      <point x="1235" y="174"/>
      <point x="1315" y="333" type="curve"/>
      <point x="1315" y="181"/>
      <point x="1392" y="87"/>
      <point x="1515" y="87" type="curve" smooth="yes"/>
      <point x="1704" y="87"/>
      <point x="1843" y="305"/>
      <point x="1843" y="610" type="curve" smooth="yes"/>
      <point x="1843" y="1080"/>
      <point x="1513" y="1410"/>
      <point x="1032" y="1410" type="curve" smooth="yes"/>
      <point x="505" y="1410"/>
      <point x="105" y="1014"/>
      <point x="105" y="488" type="curve" smooth="yes"/>
      <point x="105" y="21"/>
      <point x="420" y="-296"/>
      <point x="874" y="-296" type="curve" smooth="yes"/>
      <point x="1054" y="-296"/>
      <point x="1230" y="-246"/>
      <point x="1394" y="-150" type="curve"/>
      <point x="1373" y="-111" type="line"/>
      <point x="1217" y="-208"/>
      <point x="1049" y="-258"/>
      <point x="884" y="-258" type="curve" smooth="yes"/>
      <point x="445" y="-258"/>
      <point x="147" y="42"/>
      <point x="147" y="486" type="curve" smooth="yes"/>
      <point x="147" y="990"/>
      <point x="531" y="1373"/>
      <point x="1032" y="1373" type="curve" smooth="yes"/>
      <point x="1487" y="1373"/>
      <point x="1801" y="1056"/>
      <point x="1801" y="609" type="curve" smooth="yes"/>
      <point x="1801" y="329"/>
      <point x="1678" y="125"/>
      <point x="1517" y="125" type="curve" smooth="yes"/>
      <point x="1415" y="125"/>
      <point x="1355" y="207"/>
      <point x="1355" y="347" type="curve" smooth="yes"/>
      <point x="1355" y="427"/>
      <point x="1386" y="744"/>
      <point x="1411" y="941" type="curve"/>
      <point x="1370" y="941" type="line"/>
      <point x="1352" y="743" type="line"/>
      <point x="1297" y="909"/>
      <point x="1159" y="1007"/>
      <point x="976" y="1007" type="curve" smooth="yes"/>
      <point x="707" y="1007"/>
      <point x="507" y="796"/>
      <point x="507" y="510" type="curve" smooth="yes"/>
      <point x="507" y="255"/>
      <point x="667" y="87"/>
    </contour>
    <contour>
      <point x="910" y="125" type="curve" smooth="yes"/>
      <point x="694" y="125"/>
      <point x="549" y="281"/>
      <point x="549" y="512" type="curve" smooth="yes"/>
      <point x="549" y="773"/>
      <point x="732" y="969"/>
      <point x="974" y="969" type="curve" smooth="yes"/>
      <point x="1189" y="969"/>
      <point x="1338" y="813"/>
      <point x="1338" y="585" type="curve"/>
      <point x="1328" y="481" type="line"/>
      <point x="1287" y="274"/>
      <point x="1120" y="125"/>
    </contour>
  </outline>
</glyph>
<glyph name="A" format="1">
  <advance width="1475"/>
  <unicode hex="0041"/>
  <outline>
    <contour>
      <point x="123" y="0" type="line"/>
      <point x="329" y="488" type="line" name="dv01"/>
      <point x="1145" y="488" type="line"/>
      <point x="1352" y="0" type="line"/>
      <point x="1400" y="0" type="line"/>
      <point x="766" y="1500" type="line"/>
      <point x="709" y="1500" type="line"/>
      <point x="75" y="0" type="line"/>
    </contour>
    <contour>
      <point x="347" y="530" type="line" name="dv02"/>
      <point x="737" y="1454" type="line"/>
      <point x="1128" y="530" type="line"/>
    </contour>
  </outline>
</glyph>
<glyph name="C" format="2">
  <advance width="1565"/>
  <unicode hex="0043"/>
  <anchor x="888" y="0" name="bottom"/>
  <anchor x="871" y="1500" name="top"/>
  <outline>
    <contour>
      <point x="1430" y="195" type="curve"/>
      <point x="1399" y="226" type="line"/>
      <point x="1270" y="92"/>
      <point x="1087" y="12"/>
      <point x="875" y="12" type="curve" smooth="yes"/>
      <point x="456" y="12"/>
      <point x="150" y="324"/>
      <point x="150" y="750" type="curve" smooth="yes"/>
      <point x="150" y="1176"/>
      <point x="456" y="1488"/>
      <point x="875" y="1488" type="curve" smooth="yes"/>
      <point x="1087" y="1488"/>
      <point x="1270" y="1408"/>
      <point x="1399" y="1274" type="curve"/>
      <point x="1430" y="1306" type="line"/>
      <point x="1293" y="1446"/>
      <point x="1100" y="1530"/>
      <point x="876" y="1530" type="curve" smooth="yes"/>
      <point x="430" y="1530"/>
      <point x="105" y="1201"/>
      <point x="105" y="750" type="curve" smooth="yes"/>
      <point x="105" y="299"/>
      <point x="430" y="-30"/>
      <point x="876" y="-30" type="curve" smooth="yes"/>
      <point x="1100" y="-30"/>
      <point x="1294" y="54"/>
    </contour>
  </outline>
</glyph>
<glyph name="D" format="2">
  <advance width="1547"/>
  <unicode hex="0044"/>
  <anchor x="714" y="0" name="bottom"/>
  <anchor x="714" y="1500" name="top"/>
  <outline>
    <contour>
      <point x="185" y="0" type="line"/>
      <point x="558" y="0" type="line" smooth="yes"/>
      <point x="1117" y="0"/>
      <point x="1442" y="275"/>
      <point x="1442" y="750" type="curve" smooth="yes"/>
      <point x="1442" y="1225"/>
      <point x="1117" y="1500"/>
      <point x="558" y="1500" type="curve" smooth="yes"/>
      <point x="185" y="1500" type="line"/>
    </contour>
    <contour>
      <point x="229" y="42" type="line"/>
      <point x="229" y="1458" type="line"/>
      <point x="563" y="1458" type="line" smooth="yes"/>
      <point x="1088" y="1458"/>
      <point x="1397" y="1195"/>
      <point x="1397" y="750" type="curve" smooth="yes"/>
      <point x="1397" y="305"/>
      <point x="1088" y="42"/>
      <point x="563" y="42" type="curve" smooth="yes"/>
    </contour>
  </outline>
</glyph>
<glyph name="F" format="2">
  <advance width="1230"/>
  <unicode hex="0046"/>
  <outline>
    <contour>
      <point x="185" y="0" type="line"/>
      <point x="229" y="0" type="line"/>
      <point x="229" y="748" type="line"/>
      <point x="1014" y="748" type="line"/>
      <point x="1014" y="790" type="line"/>
      <point x="229" y="790" type="line"/>
      <point x="229" y="1458" type="line"/>
      <point x="1055" y="1458" type="line"/>
      <point x="1055" y="1500" type="line"/>
      <point x="185" y="1500" type="line"/>
    </contour>
  </outline>
</glyph>
<glyph name="G" format="1">
  <advance width="1698"/>
  <unicode hex="0047"/>
  <outline>
    <contour>
      <point x="1382" y="1291" type="curve"/>
      <point x="1415" y="1321" type="line"/>
      <point x="1274" y="1457"/>
      <point x="1085" y="1530"/>
      <point x="876" y="1530" type="curve" smooth="yes"/>
      <point x="430" y="1530"/>
      <point x="105" y="1199"/>
      <point x="105" y="745" type="curve" smooth="yes"/>
      <point x="105" y="297"/>
      <point x="420" y="-30"/>
      <point x="853" y="-30" type="curve" smooth="yes"/>
      <point x="1285" y="-30"/>
      <point x="1593" y="294"/>
      <point x="1593" y="750" type="curve"/>
      <point x="1592" y="763" type="line"/>
      <point x="887" y="763" type="line"/>
      <point x="887" y="721" type="line"/>
      <point x="1547" y="721" type="line"/>
      <point x="1547" y="313"/>
      <point x="1236" y="12"/>
      <point x="844" y="12" type="curve" smooth="yes"/>
      <point x="445" y="12"/>
      <point x="150" y="324"/>
      <point x="150" y="746" type="curve" smooth="yes"/>
      <point x="150" y="1176"/>
      <point x="456" y="1488"/>
      <point x="875" y="1488" type="curve" smooth="yes"/>
      <point x="1072" y="1488"/>
      <point x="1250" y="1419"/>
    </contour>
  </outline>
</glyph>
<glyph name="J" format="2">
  <advance width="441"/>
  <unicode hex="004A"/>
  <anchor x="234" y="0" name="bottom"/>
  <anchor x="234" y="1500" name="top"/>
  <outline>
    <contour>
      <point x="-165" y="-360" type="line"/>
      <point x="118" y="-360"/>
      <point x="256" y="-221"/>
      <point x="256" y="64" type="curve" smooth="yes"/>
      <point x="256" y="1500" type="line"/>
      <point x="212" y="1500" type="line"/>
      <point x="212" y="51" type="line" smooth="yes"/>
      <point x="212" y="-192"/>
      <point x="84" y="-318"/>
      <point x="-165" y="-318" type="curve"/>
    </contour>
  </outline>
</glyph>
<glyph name="K" format="2">
  <advance width="1294"/>
  <unicode hex="004B"/>
  <anchor x="656" y="0" name="bottom"/>
  <anchor x="647" y="1500" name="top"/>
  <outline>
    <contour>
      <point x="229" y="0" type="line"/>
      <point x="229" y="370" type="line"/>
      <point x="556" y="781" type="line"/>
      <point x="1189" y="0" type="line"/>
      <point x="1249" y="0" type="line"/>
      <point x="587" y="818" type="line"/>
      <point x="1128" y="1500" type="line"/>
      <point x="1071.94" y="1500" type="line"/>
      <point x="304.144" y="534.181" type="line" smooth="yes"/>
      <point x="273.954" y="496.204"/>
      <point x="255.03" y="471.062"/>
      <point x="229" y="438" type="curve"/>
      <point x="229" y="1500" type="line"/>
      <point x="185" y="1500" type="line"/>
      <point x="185" y="0" type="line"/>
    </contour>
  </outline>
</glyph>
<glyph name="L" format="1">
  <advance width="1150"/>
  <unicode hex="004C"/>
  <outline>
    <contour>
      <point x="1045" y="0" type="line"/>
      <point x="1045" y="42" type="line"/>
      <point x="229" y="42" type="line"/>
      <point x="229" y="1500" type="line"/>
      <point x="185" y="1500" type="line"/>
      <point x="185" y="0" type="line"/>
    </contour>
  </outline>
</glyph>
<glyph name="N" format="2">
  <advance width="1609"/>
  <unicode hex="004E"/>
  <anchor x="805" y="0" name="bottom"/>
  <anchor x="805" y="1500" name="top"/>
  <outline>
    <contour>
      <point x="1424" y="0" type="line"/>
      <point x="1424" y="1500" type="line"/>
      <point x="1380" y="1500" type="line"/>
      <point x="1380" y="56" type="line"/>
      <point x="242" y="1500" type="line"/>
      <point x="185" y="1500" type="line"/>
      <point x="185" y="0" type="line"/>
      <point x="229" y="0" type="line"/>
      <point x="229" y="1444" type="line"/>
      <point x="1367" y="0" type="line"/>
    </contour>
  </outline>
</glyph>
<glyph name="O" format="2">
  <advance width="1750"/>
  <unicode hex="004F"/>
  <anchor x="875" y="0" name="bottom"/>
  <anchor x="875" y="750" name="center"/>
  <anchor x="1575" y="10" name="ogonek"/>
  <anchor x="875" y="1500" name="top"/>
  <anchor x="20" y="1500" name="topleft"/>
  <anchor x="1730" y="1500" name="topright"/>
  <outline>
    <contour>
      <point x="876" y="-30" type="curve" smooth="yes"/>
      <point x="1320" y="-30"/>
      <point x="1645" y="300"/>
      <point x="1645" y="750" type="curve" smooth="yes"/>
      <point x="1645" y="1201"/>
      <point x="1320" y="1530"/>
      <point x="876" y="1530" type="curve" smooth="yes"/>
      <point x="430" y="1530"/>
      <point x="105" y="1201"/>
      <point x="105" y="750" type="curve" smooth="yes"/>
      <point x="105" y="299"/>
      <point x="430" y="-30"/>
    </contour>
    <contour>
      <point x="875" y="12" type="curve" smooth="yes"/>
      <point x="456" y="12"/>
      <point x="150" y="324"/>
      <point x="150" y="750" type="curve" smooth="yes"/>
      <point x="150" y="1176"/>
      <point x="456" y="1488"/>
      <point x="875" y="1488" type="curve" smooth="yes"/>
      <point x="1294" y="1488"/>
      <point x="1600" y="1175"/>
      <point x="1600" y="750" type="curve" smooth="yes"/>
      <point x="1600" y="325"/>
      <point x="1294" y="12"/>
    </contour>
  </outline>
</glyph>
<glyph name="R" format="1">
  <advance width="1295"/>
  <unicode hex="0052"/>
  <outline>
    <contour>
      <point x="1190" y="0" type="line"/>
      <point x="787" y="684" type="line"/>
      <point x="1019" y="713"/>
      <point x="1165" y="865"/>
      <point x="1165" y="1089" type="curve" smooth="yes"/>
      <point x="1165" y="1338"/>
      <point x="984" y="1500"/>
      <point x="704" y="1500" type="curve" smooth="yes"/>
      <point x="185" y="1500" type="line"/>
      <point x="185" y="0" type="line"/>
      <point x="229" y="0" type="line"/>
      <point x="229" y="679" type="line"/>
      <point x="736" y="679" type="line"/>
      <point x="1140" y="0" type="line"/>
    </contour>
    <contour>
      <point x="229" y="721" type="line"/>
      <point x="229" y="1458" type="line"/>
      <point x="704" y="1458" type="line" smooth="yes"/>
      <point x="958" y="1458"/>
      <point x="1120" y="1314"/>
      <point x="1120" y="1089" type="curve" smooth="yes"/>
      <point x="1120" y="865"/>
      <point x="957" y="721"/>
      <point x="704" y="721" type="curve" smooth="yes"/>
    </contour>
  </outline>
</glyph>
<glyph name="U" format="2">
  <advance width="1578"/>
  <unicode hex="0055"/>
  <anchor x="789" y="0" name="bottom"/>
  <anchor x="1005" y="0" name="ogonek"/>
  <anchor x="789" y="1500" name="top"/>
  <anchor x="1558" y="1500" name="topright"/>
  <outline>
    <contour>
      <point x="1393" y="1500" type="line"/>
      <point x="1349" y="1500" type="line"/>
      <point x="1349" y="657" type="line" smooth="yes"/>
      <point x="1349" y="262"/>
      <point x="1132" y="12"/>
      <point x="789" y="12" type="curve" smooth="yes"/>
      <point x="447" y="12"/>
      <point x="229" y="263"/>
      <point x="229" y="657" type="curve" smooth="yes"/>
      <point x="229" y="1500" type="line"/>
      <point x="185" y="1500" type="line"/>
      <point x="185" y="667" type="line" smooth="yes"/>
      <point x="185" y="233"/>
      <point x="413" y="-30"/>
      <point x="789" y="-30" type="curve" smooth="yes"/>
      <point x="1166" y="-30"/>
      <point x="1393" y="232"/>
      <point x="1393" y="667" type="curve" smooth="yes"/>
    </contour>
  </outline>
</glyph>
<glyph name="V" format="2">
  <advance width="1515"/>
  <unicode hex="0056"/>
  <outline>
    <contour>
      <point x="787" y="0" type="line"/>
      <point x="1420" y="1500" type="line"/>
      <point x="1372" y="1500" type="line"/>
      <point x="758" y="46" type="line"/>
      <point x="143" y="1500" type="line"/>
      <point x="95" y="1500" type="line"/>
      <point x="728" y="0" type="line"/>
    </contour>
  </outline>
</glyph>
<glyph name="W" format="1">
  <advance width="2088"/>
  <unicode hex="0057"/>
  <outline>
    <contour>
      <point x="1517" y="0" type="line"/>
      <point x="2003" y="1500" type="line"/>
      <point x="1957" y="1500" type="line"/>
      <point x="1507" y="112" type="line"/>
      <point x="1056" y="1500" type="line"/>
      <point x="1035" y="1500" type="line"/>
      <point x="584" y="110" type="line"/>
      <point x="131" y="1500" type="line"/>
      <point x="85" y="1500" type="line"/>
      <point x="573" y="0" type="line"/>
      <point x="594" y="0" type="line"/>
      <point x="1046" y="1391" type="line"/>
      <point x="1496" y="0" type="line"/>
    </contour>
  </outline>
</glyph>
<glyph name="Y" format="1">
  <advance width="1348"/>
  <unicode hex="0059"/>
  <outline>
    <contour>
      <point x="695" y="0" type="line"/>
      <point x="695" y="641" type="line"/>
      <point x="1293" y="1500" type="line"/>
      <point x="1240" y="1500" type="line"/>
      <point x="674" y="686" type="line"/>
      <point x="108" y="1500" type="line"/>
      <point x="55" y="1500" type="line"/>
      <point x="651" y="641" type="line"/>
      <point x="651" y="0" type="line"/>
    </contour>
  </outline>
</glyph>
<glyph name="Z" format="2">
  <advance width="1307"/>
  <unicode hex="005A"/>
  <anchor x="654" y="0" name="bottom"/>
  <anchor x="654" y="750" name="center"/>
  <anchor x="654" y="1500" name="top"/>
  <outline>
    <contour>
      <point x="1202" y="0" type="line"/>
      <point x="1202" y="42" type="line"/>
      <point x="162" y="42" type="line"/>
      <point x="1182" y="1448" type="line"/>
      <point x="1182" y="1500" type="line"/>
      <point x="145" y="1500" type="line"/>
      <point x="145" y="1458" type="line"/>
      <point x="1135" y="1458" type="line"/>
      <point x="105" y="42" type="line"/>
      <point x="105" y="0" type="line"/>
    </contour>
  </outline>
</glyph>
<glyph name="bracketleft" format="1">
  <advance width="591"/>
  <unicode hex="005B"/>
  <outline>
    <contour>
      <point x="486" y="-289" type="line" name="sh01"/>
      <point x="486" y="-251" type="line"/>
      <point x="226" y="-251" type="line" name="dv02"/>
      <point x="226" y="1502" type="line" name="dv03"/>
      <point x="486" y="1502" type="line" name="sh02"/>
      <point x="486" y="1540" type="line"/>
      <point x="185" y="1540" type="line" name="dv04"/>
      <point x="185" y="-289" type="line" name="dv01"/>
    </contour>
  </outline>
</glyph>
<glyph name="backslash" format="2">
  <advance width="771"/>
  <unicode hex="005C"/>
  <outline>
    <contour>
      <point x="726" y="-20" type="line"/>
      <point x="89" y="1520" type="line"/>
      <point x="45" y="1520" type="line" name="at01"/>
      <point x="682" y="-20" type="line" name="av01"/>
    </contour>
  </outline>
</glyph>
<glyph name="underscore" format="2">
  <advance width="1390"/>
  <unicode hex="005F"/>
  <outline>
    <contour>
      <point x="1205" y="0" type="line" name="ab01"/>
      <point x="1205" y="38" type="line"/>
      <point x="185" y="38" type="line" name="sv01"/>
      <point x="185" y="0" type="line"/>
    </contour>
  </outline>
</glyph>
<glyph name="a" format="2">
  <advance width="1082"/>
  <unicode hex="0061"/>
  <anchor x="541" y="0" name="bottom"/>
  <anchor x="906" y="0" name="ogonek"/>
  <anchor x="541" y="1000" name="top"/>
  <outline>
    <contour>
      <point x="907" y="0" type="line" name="n0"/>
      <point x="907" y="627" type="line" smooth="yes" name="n1"/>
      <point x="907" y="868"/>
      <point x="764" y="1020"/>
      <point x="536" y="1020" type="curve" smooth="yes"/>
      <point x="414" y="1020"/>
      <point x="292" y="976"/>
      <point x="196" y="898" type="curve" name="n7"/>
      <point x="221" y="861" type="line" name="n8"/>
      <point x="306" y="938"/>
      <point x="419" y="982"/>
      <point x="536" y="982" type="curve" smooth="yes"/>
      <point x="742" y="982"/>
      <point x="866" y="846"/>
      <point x="866" y="620" type="curve" smooth="yes" name="n14"/>
      <point x="866" y="500" type="line" name="n14.1"/>
      <point x="777" y="566" name="n15.1"/>
      <point x="662" y="601" name="n16.1"/>
      <point x="540" y="601" type="curve" smooth="yes" name="n17"/>
      <point x="302" y="601" name="n18"/>
      <point x="135" y="468" name="n19"/>
      <point x="135" y="285" type="curve" smooth="yes" name="n20"/>
      <point x="135" y="110" name="n21"/>
      <point x="288" y="-20" name="n22"/>
      <point x="491" y="-20" type="curve" smooth="yes" name="n23"/>
      <point x="671" y="-20"/>
      <point x="812" y="81"/>
      <point x="867" y="236" type="curve" name="n15"/>
      <point x="875" y="0" type="line" name="n16"/>
    </contour>
    <contour>
      <point x="495" y="18" type="curve" smooth="yes" name="n4"/>
      <point x="315" y="18" name="n5"/>
      <point x="177" y="136" name="n6"/>
      <point x="177" y="290" type="curve" smooth="yes" name="n7.1"/>
      <point x="177" y="451" name="n8.1"/>
      <point x="325" y="563" name="n9"/>
      <point x="539" y="563" type="curve" smooth="yes" name="n10"/>
      <point x="660" y="563" name="n11"/>
      <point x="766" y="527" name="n12"/>
      <point x="866" y="454" type="curve" name="n13"/>
      <point x="866" y="387" type="line" smooth="yes" name="n1.1"/>
      <point x="866" y="180" name="n2"/>
      <point x="704" y="18" name="n3"/>
    </contour>
  </outline>
</glyph>
<glyph name="c" format="2">
  <advance width="1094"/>
  <unicode hex="0063"/>
  <anchor x="629" y="0" name="bottom"/>
  <anchor x="629" y="1000" name="top"/>
  <outline>
    <contour>
      <point x="979" y="129" type="curve"/>
      <point x="951" y="158" type="line"/>
      <point x="867" y="71"/>
      <point x="749" y="18"/>
      <point x="616" y="18" type="curve" smooth="yes"/>
      <point x="349" y="18"/>
      <point x="147" y="226"/>
      <point x="147" y="500" type="curve" smooth="yes"/>
      <point x="147" y="774"/>
      <point x="349" y="982"/>
      <point x="616" y="982" type="curve" smooth="yes"/>
      <point x="749" y="982"/>
      <point x="867" y="929"/>
      <point x="951" y="842" type="curve"/>
      <point x="979" y="871" type="line"/>
      <point x="888" y="964"/>
      <point x="760" y="1020"/>
      <point x="616" y="1020" type="curve" smooth="yes"/>
      <point x="326" y="1020"/>
      <point x="105" y="796"/>
      <point x="105" y="500" type="curve" smooth="yes"/>
      <point x="105" y="204"/>
      <point x="326" y="-20"/>
      <point x="616" y="-20" type="curve" smooth="yes"/>
      <point x="761" y="-20"/>
      <point x="888" y="36"/>
    </contour>
  </outline>
</glyph>
<glyph name="h" format="2">
  <advance width="1212"/>
  <unicode hex="0068"/>
  <anchor x="606" y="0" name="bottom"/>
  <anchor x="606" y="500" name="center"/>
  <anchor x="208" y="1500" name="top"/>
  <outline>
    <contour>
      <point x="185" y="0" type="line"/>
      <point x="226" y="0" type="line"/>
      <point x="226" y="563" type="line" smooth="yes"/>
      <point x="226" y="822"/>
      <point x="377" y="982"/>
      <point x="620" y="982" type="curve" smooth="yes"/>
      <point x="862" y="982"/>
      <point x="1006" y="826"/>
      <point x="1006" y="563" type="curve" smooth="yes"/>
      <point x="1006" y="0" type="line"/>
      <point x="1047" y="0" type="line"/>
      <point x="1047" y="563" type="line" smooth="yes"/>
      <point x="1047" y="851"/>
      <point x="889" y="1020"/>
      <point x="623" y="1020" type="curve" smooth="yes"/>
      <point x="427" y="1020"/>
      <point x="290" y="930"/>
      <point x="226" y="762" type="curve"/>
      <point x="226" y="1500" type="line"/>
      <point x="185" y="1500" type="line"/>
    </contour>
  </outline>
</glyph>
<glyph name="k" format="2">
  <advance width="1071"/>
  <unicode hex="006B"/>
  <anchor x="533" y="0" name="bottom"/>
  <anchor x="536" y="1500" name="top"/>
  <outline>
    <contour>
      <point x="226" y="0" type="line"/>
      <point x="226" y="259" type="line"/>
      <point x="496" y="546" type="line"/>
      <point x="945" y="0" type="line"/>
      <point x="996" y="0" type="line"/>
      <point x="523" y="574" type="line"/>
      <point x="924" y="1000" type="line"/>
      <point x="875" y="1000" type="line"/>
      <point x="284" y="382" type="line"/>
      <point x="226" y="316" type="line"/>
      <point x="226" y="1500" type="line"/>
      <point x="185" y="1500" type="line"/>
      <point x="185" y="0" type="line"/>
    </contour>
  </outline>
</glyph>
<glyph name="l" format="2">
  <advance width="410"/>
  <unicode hex="006C"/>
  <anchor x="205" y="0" name="bottom"/>
  <anchor x="205" y="500" name="center"/>
  <anchor x="205" y="1500" name="top"/>
  <anchor x="390" y="1500" name="topright"/>
  <outline>
    <contour>
      <point x="225" y="0" type="line"/>
      <point x="225" y="1500" type="line" name="av01"/>
      <point x="185" y="1500" type="line" name="dh01"/>
      <point x="185" y="0" type="line" name="ab01"/>
    </contour>
  </outline>
</glyph>
<glyph name="n" format="2">
  <advance width="1212"/>
  <unicode hex="006E"/>
  <anchor x="644" y="0" name="bottom"/>
  <anchor x="626" y="1000" name="top"/>
  <outline>
    <contour>
      <point x="1047" y="0" type="line"/>
      <point x="1047" y="563" type="line" smooth="yes"/>
      <point x="1047" y="851"/>
      <point x="890" y="1020"/>
      <point x="622" y="1020" type="curve" smooth="yes"/>
      <point x="426" y="1020"/>
      <point x="289" y="930"/>
      <point x="226" y="760" type="curve"/>
      <point x="226" y="1000" type="line"/>
      <point x="185" y="1000" type="line"/>
      <point x="185" y="0" type="line"/>
      <point x="226" y="0" type="line"/>
      <point x="226" y="563" type="line" smooth="yes"/>
      <point x="226" y="822"/>
      <point x="377" y="982"/>
      <point x="621" y="982" type="curve" smooth="yes"/>
      <point x="862" y="982"/>
      <point x="1006" y="826"/>
      <point x="1006" y="563" type="curve" smooth="yes"/>
      <point x="1006" y="0" type="line"/>
    </contour>
  </outline>
</glyph>
<glyph name="o" format="2">
  <advance width="1230"/>
  <unicode hex="006F"/>
  <anchor x="615" y="0" name="bottom"/>
  <anchor x="615" y="500" name="center"/>
  <anchor x="1107" y="10" name="ogonek"/>
  <anchor x="615" y="1000" name="top"/>
  <anchor x="1210" y="1000" name="topright"/>
  <outline>
    <contour>
      <point x="616" y="-20" type="curve" smooth="yes"/>
      <point x="905" y="-20"/>
      <point x="1125" y="205"/>
      <point x="1125" y="500" type="curve" smooth="yes"/>
      <point x="1125" y="795"/>
      <point x="905" y="1020"/>
      <point x="616" y="1020" type="curve" smooth="yes"/>
      <point x="326" y="1020"/>
      <point x="105" y="796"/>
      <point x="105" y="500" type="curve" smooth="yes"/>
      <point x="105" y="204"/>
      <point x="326" y="-20"/>
    </contour>
    <contour>
      <point x="616" y="18" type="curve" smooth="yes"/>
      <point x="349" y="18"/>
      <point x="147" y="226"/>
      <point x="147" y="500" type="curve" smooth="yes"/>
      <point x="147" y="774"/>
      <point x="349" y="982"/>
      <point x="616" y="982" type="curve" smooth="yes"/>
      <point x="881" y="982"/>
      <point x="1083" y="774"/>
      <point x="1083" y="500" type="curve" smooth="yes"/>
      <point x="1083" y="226"/>
      <point x="881" y="18"/>
    </contour>
  </outline>
</glyph>
<glyph name="r" format="2">
  <advance width="758"/>
  <unicode hex="0072"/>
  <anchor x="209" y="0" name="bottom"/>
  <anchor x="379" y="1000" name="top"/>
  <outline>
    <contour>
      <point x="226" y="0" type="line"/>
      <point x="226" y="534" type="line" smooth="yes"/>
      <point x="226" y="796"/>
      <point x="395" y="982"/>
      <point x="632" y="982" type="curve" smooth="yes"/>
      <point x="657" y="982"/>
      <point x="682" y="980"/>
      <point x="708" y="976" type="curve"/>
      <point x="713" y="1014" type="line"/>
      <point x="686" y="1018"/>
      <point x="660" y="1020"/>
      <point x="633" y="1020" type="curve" smooth="yes"/>
      <point x="434" y="1020"/>
      <point x="285" y="922"/>
      <point x="225" y="733" type="curve"/>
      <point x="225" y="1000" type="line"/>
      <point x="185" y="1000" type="line"/>
      <point x="185" y="0" type="line"/>
    </contour>
  </outline>
</glyph>
<glyph name="t" format="2">
  <advance width="753"/>
  <unicode hex="0074"/>
  <anchor x="427" y="0" name="bottom"/>
  <anchor x="377" y="500" name="center"/>
  <anchor x="377" y="1000" name="top"/>
  <anchor x="733" y="1500" name="topright"/>
  <outline>
    <contour>
      <point x="658" y="21" type="curve"/>
      <point x="642" y="56" type="line"/>
      <point x="595" y="31"/>
      <point x="549" y="18"/>
      <point x="505" y="18" type="curve" smooth="yes"/>
      <point x="388" y="18"/>
      <point x="311" y="107"/>
      <point x="311" y="243" type="curve" smooth="yes"/>
      <point x="311" y="962" type="line"/>
      <point x="631" y="962" type="line"/>
      <point x="631" y="1000" type="line"/>
      <point x="311" y="1000" type="line"/>
      <point x="311" y="1250" type="line"/>
      <point x="270" y="1250" type="line"/>
      <point x="270" y="1000" type="line"/>
      <point x="95" y="1000" type="line"/>
      <point x="95" y="962" type="line"/>
      <point x="270" y="962" type="line"/>
      <point x="270" y="236" type="line" smooth="yes"/>
      <point x="270" y="81"/>
      <point x="362" y="-20"/>
      <point x="502" y="-20" type="curve" smooth="yes"/>
      <point x="553" y="-20"/>
      <point x="607" y="-6"/>
    </contour>
  </outline>
</glyph>
<glyph name="v" format="2">
  <advance width="1116"/>
  <unicode hex="0076"/>
  <outline>
    <contour>
      <point x="1011" y="1000" type="line"/>
      <point x="966" y="1000" type="line"/>
      <point x="558" y="56" type="line"/>
      <point x="150" y="1000" type="line"/>
      <point x="105" y="1000" type="line"/>
      <point x="537" y="0" type="line"/>
      <point x="578" y="0" type="line"/>
    </contour>
  </outline>
</glyph>
<glyph name="w" format="2">
  <advance width="1552"/>
  <unicode hex="0077"/>
  <anchor x="776" y="0" name="bottom"/>
  <anchor x="776" y="1000" name="top"/>
  <outline>
    <contour>
      <point x="1130" y="0" type="line"/>
      <point x="1467" y="1000" type="line"/>
      <point x="1424" y="1000" type="line"/>
      <point x="1110" y="69" type="line"/>
      <point x="796" y="1000" type="line"/>
      <point x="755" y="1000" type="line"/>
      <point x="441" y="69" type="line"/>
      <point x="128" y="1000" type="line"/>
      <point x="85" y="1000" type="line"/>
      <point x="421" y="0" type="line"/>
      <point x="462" y="0" type="line"/>
      <point x="775" y="932" type="line"/>
      <point x="1089" y="0" type="line"/>
    </contour>
  </outline>
</glyph>
<glyph name="z" format="2">
  <advance width="1010"/>
  <unicode hex="007A"/>
  <anchor x="505" y="0" name="bottom"/>
  <anchor x="505" y="500" name="center"/>
  <anchor x="525" y="1000" name="top"/>
  <outline>
    <contour>
      <point x="905" y="0" type="line"/>
      <point x="905" y="38" type="line"/>
      <point x="157" y="38" type="line"/>
      <point x="890" y="964" type="line"/>
      <point x="890" y="1000" type="line"/>
      <point x="137" y="1000" type="line"/>
      <point x="137" y="962" type="line"/>
      <point x="836" y="962" type="line"/>
      <point x="105" y="38" type="line"/>
      <point x="105" y="0" type="line"/>
    </contour>
  </outline>
</glyph>
<glyph name="braceleft" format="2">
  <advance width="575"/>
  <unicode hex="007B"/>
  <outline>
    <contour>
      <point x="470" y="-289" type="curve"/>
      <point x="470" y="-251" type="line"/>
      <point x="360" y="-251"/>
      <point x="310" y="-200"/>
      <point x="310" y="-87" type="curve" smooth="yes"/>
      <point x="310" y="391" type="line" smooth="yes"/>
      <point x="310" y="496"/>
      <point x="254" y="586"/>
      <point x="168" y="625" type="curve"/>
      <point x="254" y="664"/>
      <point x="310" y="754"/>
      <point x="310" y="859" type="curve" smooth="yes"/>
      <point x="310" y="1338" type="line" smooth="yes"/>
      <point x="310" y="1451"/>
      <point x="360" y="1502"/>
      <point x="470" y="1502" type="curve"/>
      <point x="470" y="1540" type="line"/>
      <point x="336" y="1540"/>
      <point x="269" y="1476"/>
      <point x="269" y="1347" type="curve" smooth="yes"/>
      <point x="269" y="859" type="line" smooth="yes"/>
      <point x="269" y="744"/>
      <point x="197" y="650"/>
      <point x="105" y="643" type="curve"/>
      <point x="105" y="608" type="line"/>
      <point x="197" y="601"/>
      <point x="269" y="506"/>
      <point x="269" y="391" type="curve" smooth="yes"/>
      <point x="269" y="-96" type="line" smooth="yes"/>
      <point x="269" y="-225"/>
      <point x="336" y="-289"/>
    </contour>
  </outline>
</glyph>
<glyph name="bar" format="2">
  <advance width="411"/>
  <unicode hex="007C"/>
  <outline>
    <contour>
      <point x="226" y="-250" type="line"/>
      <point x="226" y="1540" type="line" name="av01"/>
      <point x="185" y="1540" type="line" name="dh01"/>
      <point x="185" y="-250" type="line" name="av02"/>
    </contour>
  </outline>
</glyph>
<glyph name="asciitilde" format="2">
  <advance width="1412"/>
  <unicode hex="007E"/>
  <outline>
    <contour>
      <point x="1227" y="658" type="curve" name="iv01"/>
      <point x="1227" y="700" type="line" name="iv01"/>
      <point x="1135" y="600"/>
      <point x="1046" y="552"/>
      <point x="956" y="552" type="curve" smooth="yes"/>
      <point x="871" y="552"/>
      <point x="793" y="593"/>
      <point x="714" y="635" type="curve" smooth="yes"/>
      <point x="634" y="678"/>
      <point x="555" y="721"/>
      <point x="467" y="721" type="curve" smooth="yes"/>
      <point x="376" y="721"/>
      <point x="284" y="674"/>
      <point x="185" y="577" type="curve"/>
      <point x="185" y="535" type="line"/>
      <point x="282" y="632"/>
      <point x="373" y="679"/>
      <point x="465" y="679" type="curve" smooth="yes"/>
      <point x="553" y="679"/>
      <point x="632" y="636"/>
      <point x="712" y="593" type="curve" smooth="yes"/>
      <point x="791" y="551"/>
      <point x="869" y="510"/>
      <point x="954" y="510" type="curve" smooth="yes"/>
      <point x="1044" y="510"/>
      <point x="1133" y="558"/>
    </contour>
  </outline>
</glyph>
<glyph name="sterling" format="1">
  <advance width="1182"/>
  <unicode hex="00A3"/>
  <outline>
    <contour>
      <point x="846" y="730" type="line"/>
      <point x="846" y="768" type="line"/>
      <point x="413" y="768" type="line"/>
      <point x="358" y="869"/>
      <point x="306" y="985"/>
      <point x="306" y="1105" type="curve" smooth="yes"/>
      <point x="306" y="1308"/>
      <point x="456" y="1482"/>
      <point x="663" y="1482" type="curve" smooth="yes"/>
      <point x="784" y="1482"/>
      <point x="903" y="1423"/>
      <point x="992" y="1317" type="curve"/>
      <point x="1021" y="1344" type="line"/>
      <point x="924" y="1457"/>
      <point x="795" y="1520"/>
      <point x="658" y="1520" type="curve" smooth="yes"/>
      <point x="432" y="1520"/>
      <point x="264" y="1352"/>
      <point x="264" y="1116" type="curve" smooth="yes"/>
      <point x="264" y="996"/>
      <point x="308" y="884"/>
      <point x="365" y="768" type="curve"/>
      <point x="155" y="768" type="line"/>
      <point x="155" y="730" type="line"/>
      <point x="381" y="730" type="line"/>
      <point x="410" y="661"/>
      <point x="434" y="592"/>
      <point x="434" y="515" type="curve" smooth="yes"/>
      <point x="434" y="363"/>
      <point x="342" y="195"/>
      <point x="175" y="38" type="curve"/>
      <point x="175" y="0" type="line"/>
      <point x="1027" y="0" type="line"/>
      <point x="1027" y="38" type="line"/>
      <point x="229" y="38" type="line"/>
      <point x="397" y="203"/>
      <point x="476" y="355"/>
      <point x="476" y="515" type="curve" smooth="yes"/>
      <point x="476" y="596"/>
      <point x="455" y="665"/>
      <point x="429" y="730" type="curve"/>
    </contour>
  </outline>
</glyph>
<glyph name="currency" format="1">
  <advance width="1305"/>
  <unicode hex="00A4"/>
  <outline>
    <contour>
      <point x="1150" y="314" type="line"/>
      <point x="987" y="477" type="line"/>
      <point x="1057" y="555"/>
      <point x="1098" y="662"/>
      <point x="1098" y="784" type="curve" smooth="yes"/>
      <point x="1098" y="905"/>
      <point x="1057" y="1010"/>
      <point x="987" y="1088" type="curve"/>
      <point x="1150" y="1251" type="line"/>
      <point x="1121" y="1280" type="line"/>
      <point x="958" y="1117" type="line"/>
      <point x="880" y="1188"/>
      <point x="775" y="1230"/>
      <point x="653" y="1230" type="curve" smooth="yes"/>
      <point x="531" y="1230"/>
      <point x="425" y="1188"/>
      <point x="347" y="1117" type="curve"/>
      <point x="184" y="1280" type="line"/>
      <point x="155" y="1251" type="line"/>
      <point x="318" y="1088" type="line"/>
      <point x="248" y="1010"/>
      <point x="207" y="905"/>
      <point x="207" y="784" type="curve" smooth="yes"/>
      <point x="207" y="662"/>
      <point x="248" y="555"/>
      <point x="318" y="477" type="curve"/>
      <point x="155" y="314" type="line"/>
      <point x="184" y="285" type="line"/>
      <point x="347" y="448" type="line"/>
      <point x="425" y="377"/>
      <point x="531" y="335"/>
      <point x="652" y="335" type="curve" smooth="yes"/>
      <point x="773" y="335"/>
      <point x="879" y="377"/>
      <point x="957" y="448" type="curve"/>
      <point x="1121" y="285" type="line"/>
    </contour>
    <contour>
      <point x="653" y="374" type="curve" smooth="yes"/>
      <point x="421" y="374"/>
      <point x="249" y="547"/>
      <point x="249" y="784" type="curve" smooth="yes"/>
      <point x="249" y="1020"/>
      <point x="422" y="1191"/>
      <point x="653" y="1191" type="curve" smooth="yes"/>
      <point x="886" y="1191"/>
      <point x="1056" y="1020"/>
      <point x="1056" y="784" type="curve" smooth="yes"/>
      <point x="1056" y="546"/>
      <point x="886" y="374"/>
    </contour>
  </outline>
</glyph>
<glyph name="brokenbar" format="1">
  <advance width="411"/>
  <unicode hex="00A6"/>
  <outline>
    <contour>
      <point x="226" y="820" type="line"/>
      <point x="226" y="1540" type="line" name="av01"/>
      <point x="185" y="1540" type="line" name="dh01"/>
      <point x="185" y="820" type="line"/>
    </contour>
    <contour>
      <point x="226" y="-250" type="line"/>
      <point x="226" y="470" type="line" name="sh01"/>
      <point x="185" y="470" type="line" name="sh02"/>
      <point x="185" y="-250" type="line" name="av02"/>
    </contour>
  </outline>
</glyph>
<glyph name="section" format="2">
  <advance width="1002"/>
  <unicode hex="00A7"/>
  <outline>
    <contour>
      <point x="239" y="-40" type="line"/>
      <point x="315" y="-73"/>
      <point x="396" y="-90"/>
      <point x="473" y="-90" type="curve" smooth="yes"/>
      <point x="659" y="-90"/>
      <point x="777" y="7"/>
      <point x="777" y="160" type="curve" smooth="yes"/>
      <point x="777" y="314"/>
      <point x="657" y="375"/>
      <point x="529" y="430" type="curve"/>
      <point x="708" y="453"/>
      <point x="817" y="562"/>
      <point x="817" y="719" type="curve" smooth="yes"/>
      <point x="817" y="904"/>
      <point x="666" y="969"/>
      <point x="517" y="1033" type="curve" smooth="yes"/>
      <point x="391" y="1087"/>
      <point x="267" y="1140"/>
      <point x="267" y="1278" type="curve" smooth="yes"/>
      <point x="267" y="1406"/>
      <point x="373" y="1493"/>
      <point x="530" y="1493" type="curve" smooth="yes"/>
      <point x="604" y="1493"/>
      <point x="687" y="1474"/>
      <point x="746" y="1444" type="curve"/>
      <point x="763" y="1480" type="line"/>
      <point x="687" y="1513"/>
      <point x="606" y="1530"/>
      <point x="529" y="1530" type="curve" smooth="yes"/>
      <point x="343" y="1530"/>
      <point x="225" y="1433"/>
      <point x="225" y="1280" type="curve" smooth="yes"/>
      <point x="225" y="1126"/>
      <point x="345" y="1066"/>
      <point x="473" y="1011" type="curve"/>
      <point x="295" y="988"/>
      <point x="185" y="879"/>
      <point x="185" y="721" type="curve" smooth="yes"/>
      <point x="185" y="536"/>
      <point x="336" y="471"/>
      <point x="480" y="409" type="curve" smooth="yes"/>
      <point x="611" y="353"/>
      <point x="735" y="300"/>
      <point x="735" y="162" type="curve" smooth="yes"/>
      <point x="735" y="34"/>
      <point x="629" y="-52"/>
      <point x="472" y="-52" type="curve" smooth="yes"/>
      <point x="398" y="-52"/>
      <point x="315" y="-34"/>
      <point x="256" y="-4" type="curve"/>
    </contour>
    <contour>
      <point x="474" y="453" type="curve"/>
      <point x="346" y="507"/>
      <point x="227" y="568"/>
      <point x="227" y="719" type="curve" smooth="yes"/>
      <point x="227" y="873"/>
      <point x="350" y="981"/>
      <point x="528" y="987" type="curve"/>
      <point x="656" y="933"/>
      <point x="775" y="873"/>
      <point x="775" y="722" type="curve" smooth="yes"/>
      <point x="775" y="568"/>
      <point x="652" y="459"/>
    </contour>
  </outline>
</glyph>
<glyph name="uni00AD" format="1">
  <advance width="1180"/>
  <unicode hex="00AD"/>
  <outline>
    <contour>
      <point x="985" y="486" type="line"/>
      <point x="985" y="524" type="line"/>
      <point x="195" y="524" type="line"/>
      <point x="195" y="486" type="line"/>
    </contour>
  </outline>
</glyph>
<glyph name="registered" format="1">
  <advance width="1409"/>
  <unicode hex="00AE"/>
  <outline>
    <contour>
      <point x="705" y="424" type="curve" smooth="yes"/>
      <point x="1051" y="424"/>
      <point x="1304" y="677"/>
      <point x="1304" y="1023" type="curve" smooth="yes"/>
      <point x="1304" y="1368"/>
      <point x="1051" y="1621"/>
      <point x="705" y="1621" type="curve" smooth="yes"/>
      <point x="358" y="1621"/>
      <point x="105" y="1368"/>
      <point x="105" y="1023" type="curve" smooth="yes"/>
      <point x="105" y="677"/>
      <point x="358" y="424"/>
    </contour>
    <contour>
      <point x="705" y="463" type="curve" smooth="yes"/>
      <point x="383" y="463"/>
      <point x="147" y="699"/>
      <point x="147" y="1021" type="curve" smooth="yes"/>
      <point x="147" y="1345"/>
      <point x="385" y="1583"/>
      <point x="705" y="1583" type="curve" smooth="yes"/>
      <point x="1024" y="1583"/>
      <point x="1262" y="1344"/>
      <point x="1262" y="1021" type="curve" smooth="yes"/>
      <point x="1262" y="700"/>
      <point x="1026" y="463"/>
    </contour>
    <contour>
      <point x="956" y="700" type="line"/>
      <point x="798" y="985" type="line"/>
      <point x="885" y="1009"/>
      <point x="936" y="1071"/>
      <point x="936" y="1159" type="curve" smooth="yes"/>
      <point x="936" y="1275"/>
      <point x="850" y="1345"/>
      <point x="707" y="1345" type="curve" smooth="yes"/>
      <point x="533" y="1345" type="line"/>
      <point x="533" y="703" type="line"/>
      <point x="574" y="703" type="line"/>
      <point x="574" y="973" type="line"/>
      <point x="758" y="973" type="line"/>
      <point x="909" y="700" type="line"/>
    </contour>
    <contour>
      <point x="574" y="1011" type="line"/>
      <point x="574" y="1307" type="line"/>
      <point x="711" y="1307" type="line" smooth="yes"/>
      <point x="821" y="1307"/>
      <point x="894" y="1247"/>
      <point x="894" y="1159" type="curve" smooth="yes"/>
      <point x="894" y="1072"/>
      <point x="823" y="1011"/>
      <point x="721" y="1011" type="curve" smooth="yes"/>
    </contour>
  </outline>
</glyph>
<glyph name="macron" format="1">
  <advance width="990"/>
  <unicode hex="00AF"/>
  <outline>
    <contour>
      <point x="805" y="1332" type="line" name="av02"/>
      <point x="805" y="1370" type="line"/>
      <point x="185" y="1370" type="line" name="av01"/>
      <point x="185" y="1332" type="line"/>
    </contour>
  </outline>
</glyph>
<glyph name="plusminus" format="2">
  <advance width="1180"/>
  <unicode hex="00B1"/>
  <outline>
    <contour>
      <point x="611" y="214" type="line"/>
      <point x="611" y="606" type="line"/>
      <point x="985" y="606" type="line"/>
      <point x="985" y="644" type="line"/>
      <point x="611" y="644" type="line"/>
      <point x="611" y="1020" type="line"/>
      <point x="570" y="1020" type="line"/>
      <point x="570" y="644" type="line"/>
      <point x="195" y="644" type="line"/>
      <point x="195" y="606" type="line"/>
      <point x="570" y="606" type="line"/>
      <point x="570" y="214" type="line"/>
    </contour>
    <contour>
      <point x="985" y="0" type="line"/>
      <point x="985" y="38" type="line"/>
      <point x="195" y="38" type="line" name="dv02"/>
      <point x="195" y="0" type="line" name="dv01"/>
    </contour>
  </outline>
</glyph>
<glyph name="twosuperior" format="1">
  <advance width="800"/>
  <unicode hex="00B2"/>
  <outline>
    <contour>
      <point x="625" y="790" type="line"/>
      <point x="625" y="828" type="line"/>
      <point x="273" y="828" type="line"/>
      <point x="494" y="1020"/>
      <point x="601" y="1178"/>
      <point x="601" y="1314" type="curve" smooth="yes"/>
      <point x="601" y="1434"/>
      <point x="519" y="1520"/>
      <point x="405" y="1520" type="curve" smooth="yes"/>
      <point x="314" y="1520"/>
      <point x="232" y="1466"/>
      <point x="185" y="1376" type="curve"/>
      <point x="221" y="1358" type="line"/>
      <point x="263" y="1436"/>
      <point x="332" y="1482"/>
      <point x="406" y="1482" type="curve" smooth="yes"/>
      <point x="496" y="1482"/>
      <point x="559" y="1413"/>
      <point x="559" y="1314" type="curve" smooth="yes"/>
      <point x="559" y="1181"/>
      <point x="442" y="1018"/>
      <point x="209" y="825" type="curve"/>
      <point x="209" y="790" type="line"/>
    </contour>
  </outline>
</glyph>
<glyph name="threesuperior" format="1">
  <advance width="773"/>
  <unicode hex="00B3"/>
  <outline>
    <contour>
      <point x="175" y="881" type="line"/>
      <point x="232" y="823"/>
      <point x="307" y="791"/>
      <point x="384" y="791" type="curve" smooth="yes"/>
      <point x="508" y="791"/>
      <point x="598" y="875"/>
      <point x="598" y="993" type="curve" smooth="yes"/>
      <point x="598" y="1088"/>
      <point x="539" y="1156"/>
      <point x="447" y="1175" type="curve"/>
      <point x="521" y="1202"/>
      <point x="571" y="1268"/>
      <point x="571" y="1346" type="curve" smooth="yes"/>
      <point x="571" y="1447"/>
      <point x="490" y="1520"/>
      <point x="378" y="1520" type="curve" smooth="yes"/>
      <point x="308" y="1520"/>
      <point x="242" y="1490"/>
      <point x="195" y="1437" type="curve"/>
      <point x="224" y="1409" type="line"/>
      <point x="261" y="1455"/>
      <point x="316" y="1482"/>
      <point x="376" y="1482" type="curve" smooth="yes"/>
      <point x="465" y="1482"/>
      <point x="529" y="1423"/>
      <point x="529" y="1344" type="curve" smooth="yes"/>
      <point x="529" y="1256"/>
      <point x="449" y="1190"/>
      <point x="341" y="1190" type="curve" smooth="yes"/>
      <point x="311" y="1190" type="line"/>
      <point x="311" y="1152" type="line"/>
      <point x="341" y="1152" type="line" smooth="yes"/>
      <point x="479" y="1152"/>
      <point x="556" y="1096"/>
      <point x="556" y="996" type="curve" smooth="yes"/>
      <point x="556" y="900"/>
      <point x="483" y="828"/>
      <point x="383" y="828" type="curve" smooth="yes"/>
      <point x="319" y="828"/>
      <point x="253" y="858"/>
      <point x="201" y="912" type="curve"/>
    </contour>
  </outline>
</glyph>
<glyph name="acute" format="1">
  <advance width="464"/>
  <unicode hex="00B4"/>
  <outline>
    <contour>
      <point x="158" y="1170" type="line"/>
      <point x="349" y="1500" type="line"/>
      <point x="296" y="1500" type="line"/>
      <point x="125" y="1170" type="line"/>
    </contour>
  </outline>
</glyph>
<glyph name="mu" format="1">
  <advance width="1328"/>
  <unicode hex="00B5"/>
  <outline>
    <contour>
      <point x="1262" y="-20" type="curve"/>
      <point x="1262" y="18" type="line"/>
      <point x="1107" y="18"/>
      <point x="1026" y="113"/>
      <point x="1026" y="295" type="curve" smooth="yes"/>
      <point x="1026" y="1000" type="line"/>
      <point x="985" y="1000" type="line"/>
      <point x="985" y="437" type="line" smooth="yes"/>
      <point x="985" y="174"/>
      <point x="845" y="18"/>
      <point x="609" y="18" type="curve" smooth="yes"/>
      <point x="372" y="18"/>
      <point x="225" y="178"/>
      <point x="225" y="437" type="curve" smooth="yes"/>
      <point x="225" y="1000" type="line"/>
      <point x="185" y="1000" type="line"/>
      <point x="185" y="-500" type="line"/>
      <point x="224" y="-500" type="line"/>
      <point x="224" y="225" type="line"/>
      <point x="290" y="66"/>
      <point x="422" y="-20"/>
      <point x="610" y="-20" type="curve" smooth="yes"/>
      <point x="798" y="-20"/>
      <point x="932" y="68"/>
      <point x="992" y="226" type="curve"/>
      <point x="1015" y="58"/>
      <point x="1101" y="-20"/>
    </contour>
  </outline>
</glyph>
<glyph name="guillemotright" format="1">
  <advance width="1074"/>
  <unicode hex="00BB"/>
  <outline>
    <contour>
      <point x="240" y="111" type="line"/>
      <point x="563" y="497" type="line"/>
      <point x="240" y="882" type="line"/>
      <point x="185" y="882" type="line"/>
      <point x="508" y="496" type="line"/>
      <point x="185" y="111" type="line"/>
    </contour>
    <contour>
      <point x="646" y="111" type="line"/>
      <point x="969" y="497" type="line"/>
      <point x="646" y="882" type="line"/>
      <point x="592" y="882" type="line"/>
      <point x="915" y="496" type="line"/>
      <point x="592" y="111" type="line"/>
    </contour>
  </outline>
</glyph>
<glyph name="onequarter" format="2">
  <advance width="1598"/>
  <unicode hex="00BC"/>
  <outline>
    <contour>
      <point x="309" y="0" type="line" name="av01.1"/>
      <point x="1320" y="1540" type="line" name="at01.1"/>
      <point x="1278" y="1540" type="line"/>
      <point x="260" y="0" type="line"/>
    </contour>
    <contour>
      <point x="354" y="780" type="line"/>
      <point x="354" y="1500" type="line"/>
      <point x="320" y="1500" type="line"/>
      <point x="155" y="1440" type="line"/>
      <point x="168" y="1404" type="line"/>
      <point x="313" y="1456" type="line"/>
      <point x="313" y="780" type="line"/>
    </contour>
    <contour>
      <point x="1360" y="0" type="line"/>
      <point x="1360" y="193" type="line"/>
      <point x="1443" y="193" type="line"/>
      <point x="1443" y="231" type="line"/>
      <point x="1360" y="231" type="line"/>
      <point x="1360" y="720" type="line"/>
      <point x="1329" y="720" type="line"/>
      <point x="955" y="227" type="line"/>
      <point x="955" y="193" type="line"/>
      <point x="1319" y="193" type="line"/>
      <point x="1319" y="0" type="line"/>
    </contour>
    <contour>
      <point x="1006" y="231" type="line"/>
      <point x="1319" y="643" type="line"/>
      <point x="1319" y="231" type="line"/>
    </contour>
  </outline>
</glyph>
<glyph name="questiondown" format="1">
  <advance width="908"/>
  <unicode hex="00BF"/>
  <outline>
    <contour>
      <point x="502" y="1030" type="curve" smooth="yes"/>
      <point x="473.429" y="1030"/>
      <point x="452" y="1008.57"/>
      <point x="452" y="980" type="curve" smooth="yes"/>
      <point x="452" y="952.619"/>
      <point x="473.429" y="930"/>
      <point x="502" y="930" type="curve" smooth="yes"/>
      <point x="530.571" y="930"/>
      <point x="552" y="952.619"/>
      <point x="552" y="980" type="curve" smooth="yes"/>
      <point x="552" y="1008.57"/>
      <point x="530.571" y="1030"/>
    </contour>
    <contour>
      <point x="777" y="-351" type="line"/>
      <point x="687" y="-429"/>
      <point x="571" y="-475"/>
      <point x="463" y="-475" type="curve" smooth="yes"/>
      <point x="295" y="-475"/>
      <point x="180" y="-362"/>
      <point x="180" y="-197" type="curve" smooth="yes"/>
      <point x="180" y="-78"/>
      <point x="241" y="-10"/>
      <point x="311" y="68" type="curve" smooth="yes"/>
      <point x="408" y="176"/>
      <point x="524" y="305"/>
      <point x="524" y="620" type="curve"/>
      <point x="480" y="620" type="line"/>
      <point x="480" y="324"/>
      <point x="370" y="199"/>
      <point x="276" y="94" type="curve" smooth="yes"/>
      <point x="200" y="10"/>
      <point x="135" y="-63"/>
      <point x="135" y="-197" type="curve" smooth="yes"/>
      <point x="135" y="-389"/>
      <point x="269" y="-520"/>
      <point x="464" y="-520" type="curve" smooth="yes"/>
      <point x="578" y="-520"/>
      <point x="695" y="-474"/>
      <point x="803" y="-388" type="curve"/>
    </contour>
  </outline>
</glyph>
<glyph name="Atilde" format="1">
  <advance width="1475"/>
  <unicode hex="00C3"/>
  <outline>
    <contour>
      <point x="1029" y="1926" type="curve"/>
      <point x="988" y="1926" type="line"/>
      <point x="973" y="1852"/>
      <point x="934" y="1813"/>
      <point x="873" y="1813" type="curve" smooth="yes"/>
      <point x="822" y="1813"/>
      <point x="787" y="1841"/>
      <point x="751" y="1871" type="curve" smooth="yes"/>
      <point x="712" y="1903"/>
      <point x="670" y="1937"/>
      <point x="603" y="1937" type="curve" smooth="yes"/>
      <point x="519" y="1937"/>
      <point x="464" y="1884"/>
      <point x="445" y="1785" type="curve"/>
      <point x="486" y="1785" type="line"/>
      <point x="501" y="1859"/>
      <point x="543" y="1900"/>
      <point x="603" y="1900" type="curve" smooth="yes"/>
      <point x="653" y="1900"/>
      <point x="688" y="1871"/>
      <point x="724" y="1841" type="curve" smooth="yes"/>
      <point x="768" y="1804"/>
      <point x="807" y="1775"/>
      <point x="867" y="1775" type="curve" smooth="yes"/>
      <point x="950" y="1775"/>
      <point x="1011" y="1832"/>
    </contour>
    <contour>
      <point x="123" y="0" type="line"/>
      <point x="329" y="488" type="line" name="dv01"/>
      <point x="1145" y="488" type="line"/>
      <point x="1352" y="0" type="line"/>
      <point x="1400" y="0" type="line"/>
      <point x="766" y="1500" type="line"/>
      <point x="709" y="1500" type="line"/>
      <point x="75" y="0" type="line"/>
    </contour>
    <contour>
      <point x="347" y="530" type="line" name="dv02"/>
      <point x="737" y="1454" type="line"/>
      <point x="1128" y="530" type="line"/>
    </contour>
  </outline>
</glyph>
<glyph name="Iacute" format="1">
  <advance width="414"/>
  <unicode hex="00CD"/>
  <outline>
    <contour>
      <point x="189" y="1670" type="line"/>
      <point x="155" y="1670" type="line"/>
      <point x="327" y="2000" type="line"/>
      <point x="380" y="2000" type="line"/>
    </contour>
    <contour>
      <point x="229" y="1500" type="line" name="at01"/>
      <point x="229" y="0" type="line" name="ab01"/>
      <point x="185" y="0" type="line" name="dh01"/>
      <point x="185" y="1500" type="line"/>
    </contour>
  </outline>
</glyph>
<glyph name="Ntilde" format="1">
  <advance width="1609"/>
  <unicode hex="00D1"/>
  <outline>
    <contour>
      <point x="1102" y="1948" type="curve"/>
      <point x="1061" y="1948" type="line"/>
      <point x="1046" y="1874"/>
      <point x="1006" y="1835"/>
      <point x="945" y="1835" type="curve" smooth="yes"/>
      <point x="894" y="1835"/>
      <point x="860" y="1863"/>
      <point x="824" y="1893" type="curve" smooth="yes"/>
      <point x="785" y="1925"/>
      <point x="743" y="1959"/>
      <point x="676" y="1959" type="curve" smooth="yes"/>
      <point x="592" y="1959"/>
      <point x="536" y="1906"/>
      <point x="517" y="1807" type="curve"/>
      <point x="558" y="1807" type="line"/>
      <point x="573" y="1881"/>
      <point x="616" y="1922"/>
      <point x="676" y="1922" type="curve" smooth="yes"/>
      <point x="726" y="1922"/>
      <point x="760" y="1893"/>
      <point x="796" y="1863" type="curve" smooth="yes"/>
      <point x="840" y="1826"/>
      <point x="879" y="1797"/>
      <point x="939" y="1797" type="curve" smooth="yes"/>
      <point x="1022" y="1797"/>
      <point x="1084" y="1854"/>
    </contour>
    <contour>
      <point x="1424" y="0" type="line"/>
      <point x="1424" y="1500" type="line"/>
      <point x="1380" y="1500" type="line"/>
      <point x="1380" y="56" type="line"/>
      <point x="242" y="1500" type="line"/>
      <point x="185" y="1500" type="line"/>
      <point x="185" y="0" type="line"/>
      <point x="229" y="0" type="line"/>
      <point x="229" y="1444" type="line"/>
      <point x="1367" y="0" type="line"/>
    </contour>
  </outline>
</glyph>
<glyph name="Ograve" format="1">
  <advance width="1750"/>
  <unicode hex="00D2"/>
  <outline>
    <contour>
      <point x="909" y="1670" type="line"/>
      <point x="737" y="2000" type="line"/>
      <point x="684" y="2000" type="line"/>
      <point x="875" y="1670" type="line"/>
    </contour>
    <contour>
      <point x="876" y="-30" type="curve" smooth="yes"/>
      <point x="1320" y="-30"/>
      <point x="1645" y="300"/>
      <point x="1645" y="750" type="curve" smooth="yes"/>
      <point x="1645" y="1201"/>
      <point x="1320" y="1530"/>
      <point x="876" y="1530" type="curve" smooth="yes"/>
      <point x="430" y="1530"/>
      <point x="105" y="1201"/>
      <point x="105" y="750" type="curve" smooth="yes"/>
      <point x="105" y="299"/>
      <point x="430" y="-30"/>
    </contour>
    <contour>
      <point x="875" y="12" type="curve" smooth="yes"/>
      <point x="456" y="12"/>
      <point x="150" y="324"/>
      <point x="150" y="750" type="curve" smooth="yes"/>
      <point x="150" y="1176"/>
      <point x="456" y="1488"/>
      <point x="875" y="1488" type="curve" smooth="yes"/>
      <point x="1294" y="1488"/>
      <point x="1600" y="1175"/>
      <point x="1600" y="750" type="curve" smooth="yes"/>
      <point x="1600" y="325"/>
      <point x="1294" y="12"/>
    </contour>
  </outline>
</glyph>
<glyph name="Otilde" format="1">
  <advance width="1750"/>
  <unicode hex="00D5"/>
  <outline>
    <contour>
      <point x="1167" y="1926" type="curve"/>
      <point x="1126" y="1926" type="line"/>
      <point x="1111" y="1852"/>
      <point x="1072" y="1813"/>
      <point x="1011" y="1813" type="curve" smooth="yes"/>
      <point x="960" y="1813"/>
      <point x="925" y="1841"/>
      <point x="889" y="1871" type="curve" smooth="yes"/>
      <point x="850" y="1903"/>
      <point x="808" y="1937"/>
      <point x="741" y="1937" type="curve" smooth="yes"/>
      <point x="657" y="1937"/>
      <point x="602" y="1884"/>
      <point x="583" y="1785" type="curve"/>
      <point x="624" y="1785" type="line"/>
      <point x="639" y="1859"/>
      <point x="681" y="1900"/>
      <point x="741" y="1900" type="curve" smooth="yes"/>
      <point x="791" y="1900"/>
      <point x="826" y="1871"/>
      <point x="862" y="1841" type="curve" smooth="yes"/>
      <point x="906" y="1804"/>
      <point x="945" y="1775"/>
      <point x="1005" y="1775" type="curve" smooth="yes"/>
      <point x="1088" y="1775"/>
      <point x="1149" y="1832"/>
    </contour>
    <contour>
      <point x="875" y="-30" type="curve" smooth="yes"/>
      <point x="1320" y="-30"/>
      <point x="1645" y="300"/>
      <point x="1645" y="750" type="curve" smooth="yes"/>
      <point x="1645" y="1201"/>
      <point x="1320" y="1530"/>
      <point x="876" y="1530" type="curve" smooth="yes"/>
      <point x="430" y="1530"/>
      <point x="105" y="1201"/>
      <point x="105" y="750" type="curve" smooth="yes"/>
      <point x="105" y="299"/>
      <point x="430" y="-30"/>
    </contour>
    <contour>
      <point x="875" y="12" type="curve" smooth="yes"/>
      <point x="456" y="12"/>
      <point x="150" y="324"/>
      <point x="150" y="750" type="curve" smooth="yes"/>
      <point x="150" y="1176"/>
      <point x="456" y="1488"/>
      <point x="875" y="1488" type="curve" smooth="yes"/>
      <point x="1294" y="1488"/>
      <point x="1600" y="1175"/>
      <point x="1600" y="750" type="curve" smooth="yes"/>
      <point x="1600" y="325"/>
      <point x="1294" y="12"/>
    </contour>
  </outline>
</glyph>
<glyph name="Ucircumflex" format="1">
  <advance width="1578"/>
  <unicode hex="00DB"/>
  <outline>
    <contour>
      <point x="1026" y="1670" type="line"/>
      <point x="821" y="2000" type="line" name="at01"/>
      <point x="764" y="2000" type="line" name="at01.1"/>
      <point x="559" y="1670" type="line"/>
      <point x="593" y="1670" type="line" name="av01"/>
      <point x="793" y="1966" type="line"/>
      <point x="992" y="1670" type="line" name="av01.1"/>
    </contour>
    <contour>
      <point x="1393" y="1500" type="line"/>
      <point x="1349" y="1500" type="line"/>
      <point x="1349" y="657" type="line" smooth="yes"/>
      <point x="1349" y="262"/>
      <point x="1132" y="12"/>
      <point x="789" y="12" type="curve" smooth="yes"/>
      <point x="447" y="12"/>
      <point x="229" y="263"/>
      <point x="229" y="657" type="curve" smooth="yes"/>
      <point x="229" y="1500" type="line"/>
      <point x="185" y="1500" type="line"/>
      <point x="185" y="667" type="line" smooth="yes"/>
      <point x="185" y="233"/>
      <point x="413" y="-30"/>
      <point x="789" y="-30" type="curve" smooth="yes"/>
      <point x="1166" y="-30"/>
      <point x="1393" y="232"/>
      <point x="1393" y="667" type="curve" smooth="yes"/>
    </contour>
  </outline>
</glyph>
<glyph name="Thorn" format="1">
  <advance width="1186"/>
  <unicode hex="00DE"/>
  <outline>
    <contour>
      <point x="226" y="0" type="line"/>
      <point x="226" y="328" type="line"/>
      <point x="549" y="328" type="line" smooth="yes"/>
      <point x="841" y="328"/>
      <point x="1021" y="489"/>
      <point x="1021" y="750" type="curve" smooth="yes"/>
      <point x="1021" y="1010"/>
      <point x="841" y="1171"/>
      <point x="549" y="1171" type="curve" smooth="yes"/>
      <point x="226" y="1171" type="line"/>
      <point x="226" y="1500" type="line"/>
      <point x="185" y="1500" type="line"/>
      <point x="185" y="0" type="line"/>
    </contour>
    <contour>
      <point x="226" y="366" type="line"/>
      <point x="226" y="1133" type="line"/>
      <point x="555" y="1133" type="line" smooth="yes"/>
      <point x="818" y="1133"/>
      <point x="979" y="988"/>
      <point x="979" y="750" type="curve" smooth="yes"/>
      <point x="979" y="512"/>
      <point x="818" y="366"/>
      <point x="555" y="366" type="curve" smooth="yes"/>
    </contour>
  </outline>
</glyph>
<glyph name="germandbls" format="1">
  <advance width="1083"/>
  <unicode hex="00DF"/>
  <outline>
    <contour>
      <point x="230" y="0" type="line"/>
      <point x="230" y="1137" type="line" smooth="yes"/>
      <point x="230" y="1348"/>
      <point x="352" y="1488"/>
      <point x="535" y="1488" type="curve" smooth="yes"/>
      <point x="712" y="1488"/>
      <point x="844" y="1359"/>
      <point x="844" y="1188" type="curve" smooth="yes"/>
      <point x="844" y="1050"/>
      <point x="759" y="987"/>
      <point x="687" y="934" type="curve" smooth="yes"/>
      <point x="625" y="889"/>
      <point x="574" y="850"/>
      <point x="574" y="786" type="curve" smooth="yes"/>
      <point x="574" y="714"/>
      <point x="637" y="673"/>
      <point x="704" y="630" type="curve" smooth="yes"/>
      <point x="800" y="568"/>
      <point x="903" y="501"/>
      <point x="903" y="353" type="curve" smooth="yes"/>
      <point x="903" y="170"/>
      <point x="747" y="22"/>
      <point x="554" y="22" type="curve"/>
      <point x="559" y="-20" type="line"/>
      <point x="774" y="-20"/>
      <point x="948" y="147"/>
      <point x="948" y="353" type="curve" smooth="yes"/>
      <point x="948" y="524"/>
      <point x="829" y="601"/>
      <point x="734" y="663" type="curve" smooth="yes"/>
      <point x="645" y="721"/>
      <point x="619" y="748"/>
      <point x="619" y="784" type="curve" smooth="yes"/>
      <point x="619" y="830"/>
      <point x="661" y="862"/>
      <point x="712" y="900" type="curve" smooth="yes"/>
      <point x="817" y="978"/>
      <point x="889" y="1051"/>
      <point x="889" y="1187" type="curve" smooth="yes"/>
      <point x="889" y="1385"/>
      <point x="739" y="1530"/>
      <point x="537" y="1530" type="curve" smooth="yes"/>
      <point x="327" y="1530"/>
      <point x="185" y="1371"/>
      <point x="185" y="1137" type="curve" smooth="yes"/>
      <point x="185" y="0" type="line"/>
    </contour>
  </outline>
</glyph>
<glyph name="ae" format="2">
  <advance width="1944"/>
  <unicode hex="00E6"/>
  <outline>
    <contour>
      <point x="1795" y="118" type="curve"/>
      <point x="1772" y="149" type="line"/>
      <point x="1658" y="57"/>
      <point x="1526" y="8"/>
      <point x="1389" y="8" type="curve" smooth="yes"/>
      <point x="1116" y="8"/>
      <point x="907" y="205"/>
      <point x="907" y="481" type="curve"/>
      <point x="1839" y="481" type="line"/>
      <point x="1839" y="509" type="line" smooth="yes"/>
      <point x="1839" y="802"/>
      <point x="1642" y="1009"/>
      <point x="1362" y="1009" type="curve" smooth="yes"/>
      <point x="1145" y="1009"/>
      <point x="973" y="886"/>
      <point x="902" y="697" type="curve"/>
      <point x="877" y="897"/>
      <point x="741" y="1020"/>
      <point x="536" y="1020" type="curve" smooth="yes"/>
      <point x="414" y="1020"/>
      <point x="292" y="976"/>
      <point x="196" y="898" type="curve" name="n7"/>
      <point x="221" y="861" type="line" name="n8"/>
      <point x="306" y="938"/>
      <point x="419" y="982"/>
      <point x="536" y="982" type="curve" smooth="yes"/>
      <point x="742" y="982"/>
      <point x="866" y="846"/>
      <point x="866" y="620" type="curve" smooth="yes" name="n14"/>
      <point x="866" y="527" type="line" name="n14.1"/>
      <point x="767" y="592"/>
      <point x="650" y="628"/>
      <point x="533" y="628" type="curve" smooth="yes"/>
      <point x="302" y="628"/>
      <point x="135" y="490"/>
      <point x="135" y="300" type="curve" smooth="yes" name="n20"/>
      <point x="135" y="118" name="n21"/>
      <point x="290" y="-20" name="n22"/>
      <point x="496" y="-20" type="curve" smooth="yes" name="n23"/>
      <point x="704" y="-20" name="n24"/>
      <point x="864" y="118"/>
      <point x="897" y="313" type="curve"/>
      <point x="966" y="105"/>
      <point x="1154" y="-31"/>
      <point x="1392" y="-31" type="curve" smooth="yes"/>
      <point x="1539" y="-31"/>
      <point x="1678" y="21"/>
    </contour>
    <contour>
      <point x="907" y="519" type="line"/>
      <point x="907" y="785"/>
      <point x="1102" y="971"/>
      <point x="1360" y="971" type="curve" smooth="yes"/>
      <point x="1616" y="971"/>
      <point x="1802" y="787"/>
      <point x="1802" y="519" type="curve"/>
    </contour>
    <contour>
      <point x="866" y="483" type="curve" name="n13"/>
      <point x="866" y="387" type="line" smooth="yes" name="n1.1"/>
      <point x="866" y="180" name="n2"/>
      <point x="704" y="18" name="n3"/>
      <point x="495" y="18" type="curve" smooth="yes" name="n4"/>
      <point x="315" y="18" name="n5"/>
      <point x="177" y="141" name="n6"/>
      <point x="177" y="301" type="curve" smooth="yes" name="n7.1"/>
      <point x="177" y="469"/>
      <point x="328" y="590"/>
      <point x="537" y="590" type="curve" smooth="yes"/>
      <point x="654" y="590"/>
      <point x="771" y="552"/>
    </contour>
  </outline>
</glyph>
<glyph name="iacute" format="1">
  <advance width="411"/>
  <unicode hex="00ED"/>
  <outline>
    <contour>
      <point x="221" y="1170" type="line"/>
      <point x="412" y="1500" type="line"/>
      <point x="359" y="1500" type="line"/>
      <point x="187" y="1170" type="line"/>
    </contour>
    <contour>
      <point x="226" y="0" type="line"/>
      <point x="226" y="1000" type="line"/>
      <point x="185" y="1000" type="line"/>
      <point x="185" y="0" type="line"/>
    </contour>
  </outline>
</glyph>
<glyph name="icircumflex" format="1">
  <advance width="412"/>
  <unicode hex="00EE"/>
  <outline>
    <contour>
      <point x="443" y="1170" type="line"/>
      <point x="238" y="1500" type="line" name="at01"/>
      <point x="181" y="1500" type="line" name="at01.1"/>
      <point x="-24" y="1170" type="line"/>
      <point x="10" y="1170" type="line" name="av01"/>
      <point x="210" y="1466" type="line"/>
      <point x="409" y="1170" type="line" name="av01.1"/>
    </contour>
    <contour>
      <point x="227" y="0" type="line"/>
      <point x="227" y="1000" type="line"/>
      <point x="185" y="1000" type="line"/>
      <point x="185" y="0" type="line"/>
    </contour>
  </outline>
</glyph>
<glyph name="eth" format="2">
  <advance width="1133"/>
  <unicode hex="00F0"/>
  <outline>
    <contour>
      <point x="951" y="1315" type="line"/>
      <point x="935" y="1349" type="line"/>
      <point x="721" y="1257" type="line"/>
      <point x="641.93" y="1350.93"/>
      <point x="551" y="1433"/>
      <point x="450" y="1500" type="curve"/>
      <point x="427" y="1466" type="line"/>
      <point x="521" y="1402"/>
      <point x="605.932" y="1325.93"/>
      <point x="680" y="1239" type="curve"/>
      <point x="273" y="1061" type="line" name="dv04"/>
      <point x="288" y="1026" type="line" name="dv03"/>
      <point x="705" y="1208" type="line"/>
      <point x="852" y="1025"/>
      <point x="953" y="805"/>
      <point x="984" y="588" type="curve"/>
      <point x="915" y="766"/>
      <point x="762" y="874"/>
      <point x="570" y="874" type="curve" smooth="yes"/>
      <point x="316" y="874"/>
      <point x="135" y="687"/>
      <point x="135" y="423" type="curve" smooth="yes"/>
      <point x="135" y="158"/>
      <point x="317" y="-30"/>
      <point x="581" y="-30" type="curve" smooth="yes"/>
      <point x="853" y="-30"/>
      <point x="1028" y="171"/>
      <point x="1028" y="489" type="curve" smooth="yes"/>
      <point x="1028" y="737"/>
      <point x="920" y="1007"/>
      <point x="746" y="1226" type="curve"/>
    </contour>
    <contour>
      <point x="574" y="12" type="curve" smooth="yes"/>
      <point x="348" y="12"/>
      <point x="179" y="187"/>
      <point x="179" y="426" type="curve" smooth="yes"/>
      <point x="179" y="662"/>
      <point x="343" y="833"/>
      <point x="570" y="833" type="curve" smooth="yes"/>
      <point x="800" y="833"/>
      <point x="973" y="655"/>
      <point x="973" y="422" type="curve" smooth="yes"/>
      <point x="973" y="189"/>
      <point x="801" y="12"/>
    </contour>
  </outline>
</glyph>
<glyph name="otilde" format="1">
  <advance width="1230"/>
  <unicode hex="00F5"/>
  <outline>
    <contour>
      <point x="914" y="1426" type="curve"/>
      <point x="873" y="1426" type="line"/>
      <point x="858" y="1352"/>
      <point x="818" y="1313"/>
      <point x="757" y="1313" type="curve" smooth="yes"/>
      <point x="706" y="1313"/>
      <point x="672" y="1341"/>
      <point x="636" y="1371" type="curve" smooth="yes"/>
      <point x="597" y="1403"/>
      <point x="555" y="1437"/>
      <point x="488" y="1437" type="curve" smooth="yes"/>
      <point x="404" y="1437"/>
      <point x="348" y="1384"/>
      <point x="329" y="1285" type="curve"/>
      <point x="370" y="1285" type="line"/>
      <point x="385" y="1359"/>
      <point x="428" y="1400"/>
      <point x="488" y="1400" type="curve" smooth="yes"/>
      <point x="538" y="1400"/>
      <point x="572" y="1371"/>
      <point x="608" y="1341" type="curve" smooth="yes"/>
      <point x="652" y="1304"/>
      <point x="691" y="1275"/>
      <point x="751" y="1275" type="curve" smooth="yes"/>
      <point x="834" y="1275"/>
      <point x="896" y="1332"/>
    </contour>
    <contour>
      <point x="616" y="-20" type="curve" smooth="yes"/>
      <point x="905" y="-20"/>
      <point x="1125" y="205"/>
      <point x="1125" y="500" type="curve" smooth="yes"/>
      <point x="1125" y="795"/>
      <point x="905" y="1020"/>
      <point x="616" y="1020" type="curve" smooth="yes"/>
      <point x="326" y="1020"/>
      <point x="105" y="796"/>
      <point x="105" y="500" type="curve" smooth="yes"/>
      <point x="105" y="204"/>
      <point x="326" y="-20"/>
    </contour>
    <contour>
      <point x="616" y="18" type="curve" smooth="yes"/>
      <point x="349" y="18"/>
      <point x="147" y="226"/>
      <point x="147" y="500" type="curve" smooth="yes"/>
      <point x="147" y="774"/>
      <point x="349" y="982"/>
      <point x="616" y="982" type="curve" smooth="yes"/>
      <point x="881" y="982"/>
      <point x="1083" y="774"/>
      <point x="1083" y="500" type="curve" smooth="yes"/>
      <point x="1083" y="226"/>
      <point x="881" y="18"/>
    </contour>
  </outline>
</glyph>
<glyph name="divide" format="2">
  <advance width="1170"/>
  <unicode hex="00F7"/>
  <outline>
    <contour>
      <point x="585" y="880" type="curve" smooth="yes"/>
      <point x="613.571" y="880"/>
      <point x="635" y="901.429"/>
      <point x="635" y="930" type="curve" smooth="yes"/>
      <point x="635" y="957.381"/>
      <point x="613.571" y="980"/>
      <point x="585" y="980" type="curve" smooth="yes"/>
      <point x="556.429" y="980"/>
      <point x="535" y="957.381"/>
      <point x="535" y="930" type="curve" smooth="yes"/>
      <point x="535" y="901.429"/>
      <point x="556.429" y="880"/>
    </contour>
    <contour>
      <point x="985" y="461" type="line"/>
      <point x="985" y="499" type="line"/>
      <point x="185" y="499" type="line" name="dv02"/>
      <point x="185" y="461" type="line" name="dv01"/>
    </contour>
    <contour>
      <point x="585" y="-20" type="curve" smooth="yes"/>
      <point x="613.571" y="-20"/>
      <point x="635" y="1.429"/>
      <point x="635" y="30" type="curve" smooth="yes"/>
      <point x="635" y="57.381"/>
      <point x="613.571" y="80"/>
      <point x="585" y="80" type="curve" smooth="yes"/>
      <point x="556.429" y="80"/>
      <point x="535" y="57.381"/>
      <point x="535" y="30" type="curve" smooth="yes"/>
      <point x="535" y="1.429"/>
      <point x="556.429" y="-20"/>
    </contour>
  </outline>
</glyph>
<glyph name="Ccaron" format="1">
  <advance width="1565"/>
  <unicode hex="010C"/>
  <outline>
    <contour>
      <point x="896" y="1670" type="line" name="at01"/>
      <point x="1101" y="2000" type="line"/>
      <point x="1067" y="2000" type="line" name="av01"/>
      <point x="868" y="1704" type="line"/>
      <point x="668" y="2000" type="line" name="av01.1"/>
      <point x="634" y="2000" type="line"/>
      <point x="839" y="1670" type="line" name="at01.1"/>
    </contour>
    <contour>
      <point x="1430" y="195" type="curve"/>
      <point x="1399" y="226" type="line"/>
      <point x="1270" y="92"/>
      <point x="1087" y="12"/>
      <point x="875" y="12" type="curve" smooth="yes"/>
      <point x="456" y="12"/>
      <point x="150" y="324"/>
      <point x="150" y="750" type="curve" smooth="yes"/>
      <point x="150" y="1176"/>
      <point x="456" y="1488"/>
      <point x="875" y="1488" type="curve" smooth="yes"/>
      <point x="1087" y="1488"/>
      <point x="1270" y="1408"/>
      <point x="1399" y="1274" type="curve"/>
      <point x="1430" y="1306" type="line"/>
      <point x="1293" y="1446"/>
      <point x="1100" y="1530"/>
      <point x="876" y="1530" type="curve" smooth="yes"/>
      <point x="430" y="1530"/>
      <point x="105" y="1201"/>
      <point x="105" y="750" type="curve" smooth="yes"/>
      <point x="105" y="299"/>
      <point x="430" y="-30"/>
      <point x="876" y="-30" type="curve" smooth="yes"/>
      <point x="1100" y="-30"/>
      <point x="1294" y="54"/>
    </contour>
  </outline>
</glyph>
<glyph name="Ebreve" format="1">
  <advance width="1240"/>
  <unicode hex="0114"/>
  <outline>
    <contour>
      <point x="925" y="2000" type="curve" name="at01"/>
      <point x="881" y="2000" type="line" name="ah01"/>
      <point x="881" y="1847"/>
      <point x="772" y="1732"/>
      <point x="625" y="1732" type="curve" smooth="yes"/>
      <point x="478" y="1732"/>
      <point x="369" y="1847"/>
      <point x="369" y="2000" type="curve" name="sh01"/>
      <point x="325" y="2000" type="line" name="at02"/>
      <point x="325" y="1826"/>
      <point x="452" y="1694"/>
      <point x="625" y="1694" type="curve" smooth="yes" name="av01"/>
      <point x="798" y="1694"/>
      <point x="925" y="1826"/>
    </contour>
    <contour>
      <point x="185" y="0" type="line"/>
      <point x="1065" y="0" type="line"/>
      <point x="1065" y="42" type="line"/>
      <point x="229" y="42" type="line"/>
      <point x="229" y="748" type="line"/>
      <point x="1014" y="748" type="line"/>
      <point x="1014" y="790" type="line"/>
      <point x="229" y="790" type="line"/>
      <point x="229" y="1458" type="line"/>
      <point x="1055" y="1458" type="line"/>
      <point x="1055" y="1500" type="line"/>
      <point x="185" y="1500" type="line"/>
    </contour>
  </outline>
</glyph>
<glyph name="eogonek" format="1">
  <advance width="1184"/>
  <unicode hex="0119"/>
  <outline>
    <contour>
      <point x="1035" y="129" type="curve"/>
      <point x="1012" y="160" type="line"/>
      <point x="898" y="68"/>
      <point x="765" y="18"/>
      <point x="628" y="18" type="curve" smooth="yes"/>
      <point x="355" y="18"/>
      <point x="147" y="216"/>
      <point x="147" y="492" type="curve"/>
      <point x="1079" y="492" type="line"/>
      <point x="1079" y="520" type="line" smooth="yes"/>
      <point x="1079" y="813"/>
      <point x="881" y="1020"/>
      <point x="600" y="1020" type="curve" smooth="yes"/>
      <point x="313" y="1020"/>
      <point x="105" y="805"/>
      <point x="105" y="507" type="curve" smooth="yes"/>
      <point x="105" y="200"/>
      <point x="325" y="-20"/>
      <point x="630" y="-20" type="curve" smooth="yes"/>
      <point x="666.701" y="-20"/>
      <point x="702.888" y="-16.7751"/>
      <point x="738.377" y="-10.4863" type="curve"/>
      <point x="636.377" y="-63.9323"/>
      <point x="574" y="-151.803"/>
      <point x="574" y="-243" type="curve" smooth="yes"/>
      <point x="574" y="-337"/>
      <point x="641" y="-416"/>
      <point x="763" y="-416" type="curve" name="av01"/>
      <point x="763" y="-379" type="line"/>
      <point x="659" y="-370"/>
      <point x="615" y="-312"/>
      <point x="615" y="-243" type="curve" smooth="yes"/>
      <point x="615" y="-152"/>
      <point x="691" y="-41"/>
      <point x="800.907" y="4" type="curve" name="ab01"/>
      <point x="885.131" y="28.2022"/>
      <point x="964.272" y="70.3626"/>
    </contour>
    <contour>
      <point x="147" y="530" type="line"/>
      <point x="156" y="795"/>
      <point x="343" y="982"/>
      <point x="600" y="982" type="curve" smooth="yes"/>
      <point x="856" y="982"/>
      <point x="1033" y="797"/>
      <point x="1042" y="530" type="curve"/>
    </contour>
  </outline>
</glyph>
<glyph name="Gbreve" format="1">
  <advance width="1698"/>
  <unicode hex="011E"/>
  <outline>
    <contour>
      <point x="1159" y="2000" type="curve" name="at01"/>
      <point x="1115" y="2000" type="line" name="ah01"/>
      <point x="1115" y="1847"/>
      <point x="1006" y="1732"/>
      <point x="859" y="1732" type="curve" smooth="yes"/>
      <point x="712" y="1732"/>
      <point x="603" y="1847"/>
      <point x="603" y="2000" type="curve" name="sh01"/>
      <point x="559" y="2000" type="line" name="at02"/>
      <point x="559" y="1826"/>
      <point x="686" y="1694"/>
      <point x="859" y="1694" type="curve" smooth="yes" name="av01"/>
      <point x="1032" y="1694"/>
      <point x="1159" y="1826"/>
    </contour>
    <contour>
      <point x="1382" y="1291" type="curve"/>
      <point x="1415" y="1321" type="line"/>
      <point x="1274" y="1457"/>
      <point x="1085" y="1530"/>
      <point x="876" y="1530" type="curve" smooth="yes"/>
      <point x="430" y="1530"/>
      <point x="105" y="1199"/>
      <point x="105" y="745" type="curve" smooth="yes"/>
      <point x="105" y="297"/>
      <point x="420" y="-30"/>
      <point x="853" y="-30" type="curve" smooth="yes"/>
      <point x="1285" y="-30"/>
      <point x="1593" y="294"/>
      <point x="1593" y="750" type="curve"/>
      <point x="1592" y="763" type="line"/>
      <point x="887" y="763" type="line"/>
      <point x="887" y="721" type="line"/>
      <point x="1547" y="721" type="line"/>
      <point x="1547" y="313"/>
      <point x="1236" y="12"/>
      <point x="844" y="12" type="curve" smooth="yes"/>
      <point x="445" y="12"/>
      <point x="150" y="324"/>
      <point x="150" y="746" type="curve" smooth="yes"/>
      <point x="150" y="1176"/>
      <point x="456" y="1488"/>
      <point x="875" y="1488" type="curve" smooth="yes"/>
      <point x="1072" y="1488"/>
      <point x="1250" y="1419"/>
    </contour>
  </outline>
</glyph>
<glyph name="Hbar" format="2">
  <advance width="1560"/>
  <unicode hex="0126"/>
  <outline>
    <contour>
      <point x="1515" y="1112" type="line" name="av02"/>
      <point x="1515" y="1150" type="line"/>
      <point x="1337" y="1150" type="line"/>
      <point x="1337" y="1500" type="line"/>
      <point x="1293" y="1500" type="line"/>
      <point x="1293" y="1150" type="line"/>
      <point x="268" y="1150" type="line"/>
      <point x="268" y="1500" type="line"/>
      <point x="224" y="1500" type="line"/>
      <point x="224" y="1150" type="line"/>
      <point x="45" y="1150" type="line" name="av01"/>
      <point x="45" y="1112" type="line"/>
      <point x="224" y="1112" type="line"/>
      <point x="224" y="0" type="line"/>
      <point x="268" y="0" type="line"/>
      <point x="268" y="720" type="line"/>
      <point x="1293" y="720" type="line"/>
      <point x="1293" y="0" type="line"/>
      <point x="1337" y="0" type="line"/>
      <point x="1337" y="1112" type="line"/>
    </contour>
    <contour>
      <point x="268" y="762" type="line"/>
      <point x="268" y="1112" type="line"/>
      <point x="1293" y="1112" type="line"/>
      <point x="1293" y="762" type="line"/>
    </contour>
  </outline>
</glyph>
<glyph name="hbar" format="2">
  <advance width="1220"/>
  <unicode hex="0127"/>
  <outline>
    <contour>
      <point x="660" y="1240" type="line" name="av02"/>
      <point x="660" y="1278" type="line"/>
      <point x="234" y="1278" type="line"/>
      <point x="234" y="1500" type="line"/>
      <point x="193" y="1500" type="line"/>
      <point x="193" y="1278" type="line"/>
      <point x="40" y="1278" type="line" name="av01"/>
      <point x="40" y="1240" type="line"/>
      <point x="193" y="1240" type="line"/>
      <point x="193" y="0" type="line"/>
      <point x="234" y="0" type="line"/>
      <point x="234" y="563" type="line" smooth="yes"/>
      <point x="234" y="822"/>
      <point x="385" y="982"/>
      <point x="628" y="982" type="curve" smooth="yes"/>
      <point x="870" y="982"/>
      <point x="1014" y="826"/>
      <point x="1014" y="563" type="curve" smooth="yes"/>
      <point x="1014" y="0" type="line"/>
      <point x="1055" y="0" type="line"/>
      <point x="1055" y="563" type="line" smooth="yes"/>
      <point x="1055" y="851"/>
      <point x="897" y="1020"/>
      <point x="631" y="1020" type="curve" smooth="yes"/>
      <point x="435" y="1020"/>
      <point x="298" y="930"/>
      <point x="234" y="762" type="curve"/>
      <point x="234" y="1240" type="line"/>
    </contour>
  </outline>
</glyph>
<glyph name="dotlessi" format="1">
  <advance width="411"/>
  <unicode hex="0131"/>
  <outline>
    <contour>
      <point x="226" y="0" type="line"/>
      <point x="226" y="1000" type="line"/>
      <point x="185" y="1000" type="line"/>
      <point x="185" y="0" type="line"/>
    </contour>
  </outline>
</glyph>
<glyph name="IJ" format="2">
  <advance width="903"/>
  <unicode hex="0132"/>
  <outline>
    <contour>
      <point x="229" y="1500" type="line" name="at01"/>
      <point x="229" y="0" type="line" name="ab01"/>
      <point x="185" y="0" type="line" name="dh01"/>
      <point x="185" y="1500" type="line"/>
    </contour>
    <contour>
      <point x="297" y="-397" type="curve"/>
      <point x="297" y="-355" type="line"/>
      <point x="546" y="-355"/>
      <point x="674" y="-229"/>
      <point x="674" y="14" type="curve" smooth="yes"/>
      <point x="674" y="1500" type="line"/>
      <point x="718" y="1500" type="line"/>
      <point x="718" y="27" type="line" smooth="yes"/>
      <point x="718" y="-258"/>
      <point x="580" y="-397"/>
    </contour>
  </outline>
</glyph>
<glyph name="Kcommaaccent" format="1">
  <advance width="1294"/>
  <unicode hex="0136"/>
  <outline>
    <contour>
      <point x="229" y="0" type="line"/>
      <point x="229" y="370" type="line"/>
      <point x="556" y="781" type="line"/>
      <point x="1189" y="0" type="line"/>
      <point x="1249" y="0" type="line"/>
      <point x="587" y="818" type="line"/>
      <point x="1128" y="1500" type="line"/>
      <point x="1071.94" y="1500" type="line"/>
      <point x="304.144" y="534.181" type="line" smooth="yes"/>
      <point x="273.954" y="496.204"/>
      <point x="255.03" y="471.062"/>
      <point x="229" y="438" type="curve"/>
      <point x="229" y="1500" type="line"/>
      <point x="185" y="1500" type="line"/>
      <point x="185" y="0" type="line"/>
    </contour>
    <contour>
      <point x="554" y="-442" type="line"/>
      <point x="641" y="-396"/>
      <point x="698" y="-296"/>
      <point x="698" y="-187" type="curve" smooth="yes"/>
      <point x="698" y="-149"/>
      <point x="691" y="-113"/>
      <point x="678" y="-78" type="curve"/>
      <point x="642" y="-90" type="line"/>
      <point x="655" y="-121"/>
      <point x="661" y="-154"/>
      <point x="661" y="-187" type="curve" smooth="yes"/>
      <point x="661" y="-276"/>
      <point x="616" y="-367"/>
      <point x="538" y="-418" type="curve"/>
    </contour>
  </outline>
</glyph>
<glyph name="uni0137" format="1">
  <advance width="1071"/>
  <unicode hex="0137"/>
  <outline>
    <contour>
      <point x="226" y="0" type="line"/>
      <point x="226" y="259" type="line"/>
      <point x="496" y="546" type="line"/>
      <point x="945" y="0" type="line"/>
      <point x="996" y="0" type="line"/>
      <point x="523" y="574" type="line"/>
      <point x="924" y="1000" type="line"/>
      <point x="875" y="1000" type="line"/>
      <point x="284" y="382" type="line"/>
      <point x="226" y="316" type="line"/>
      <point x="226" y="1500" type="line"/>
      <point x="185" y="1500" type="line"/>
      <point x="185" y="0" type="line"/>
    </contour>
    <contour>
      <point x="427" y="-442" type="line"/>
      <point x="514" y="-396"/>
      <point x="571" y="-296"/>
      <point x="571" y="-187" type="curve" smooth="yes"/>
      <point x="571" y="-149"/>
      <point x="565" y="-113"/>
      <point x="552" y="-78" type="curve"/>
      <point x="515" y="-90" type="line"/>
      <point x="528" y="-121"/>
      <point x="535" y="-154"/>
      <point x="535" y="-187" type="curve" smooth="yes"/>
      <point x="535" y="-276"/>
      <point x="490" y="-367"/>
      <point x="412" y="-418" type="curve"/>
    </contour>
  </outline>
</glyph>
<glyph name="kgreenlandic" format="2">
  <advance width="1071"/>
  <unicode hex="0138"/>
  <outline>
    <contour>
      <point x="226" y="0" type="line"/>
      <point x="226" y="259" type="line"/>
      <point x="496" y="546" type="line"/>
      <point x="945" y="0" type="line"/>
      <point x="996" y="0" type="line"/>
      <point x="523" y="574" type="line"/>
      <point x="924" y="1000" type="line"/>
      <point x="875" y="1000" type="line"/>
      <point x="284" y="382" type="line"/>
      <point x="226" y="316" type="line"/>
      <point x="226" y="1000" type="line"/>
      <point x="185" y="1000" type="line"/>
      <point x="185" y="0" type="line"/>
    </contour>
  </outline>
</glyph>
<glyph name="Lcaron" format="1">
  <advance width="1150"/>
  <unicode hex="013D"/>
  <outline>
    <contour>
      <point x="736" y="1050" type="line"/>
      <point x="849" y="1500" type="line"/>
      <point x="806" y="1500" type="line" name="av01.1"/>
      <point x="705" y="1050" type="line"/>
    </contour>
    <contour>
      <point x="1045" y="0" type="line"/>
      <point x="1045" y="42" type="line"/>
      <point x="229" y="42" type="line"/>
      <point x="229" y="1500" type="line"/>
      <point x="185" y="1500" type="line"/>
      <point x="185" y="0" type="line"/>
    </contour>
  </outline>
</glyph>
<glyph name="lcaron" format="1">
  <advance width="676"/>
  <unicode hex="013E"/>
  <outline>
    <contour>
      <point x="225" y="0" type="line"/>
      <point x="225" y="1540" type="line" name="av01"/>
      <point x="185" y="1540" type="line" name="dh01"/>
      <point x="185" y="0" type="line" name="ab01"/>
    </contour>
    <contour>
      <point x="518" y="1070" type="line"/>
      <point x="631" y="1520" type="line"/>
      <point x="588" y="1520" type="line" name="av01.1"/>
      <point x="487" y="1070" type="line"/>
    </contour>
  </outline>
</glyph>
<glyph name="Lslash" format="1">
  <advance width="1160"/>
  <unicode hex="0141"/>
  <outline>
    <contour>
      <point x="-65" y="533" type="line"/>
      <point x="195" y="683" type="line"/>
      <point x="195" y="0" type="line"/>
      <point x="1055" y="0" type="line"/>
      <point x="1055" y="42" type="line"/>
      <point x="239" y="42" type="line"/>
      <point x="239" y="708" type="line"/>
      <point x="624" y="930" type="line" name="dv01"/>
      <point x="604" y="967" type="line" name="dv02"/>
      <point x="239" y="757" type="line"/>
      <point x="239" y="1500" type="line"/>
      <point x="195" y="1500" type="line"/>
      <point x="195" y="731" type="line"/>
      <point x="-85" y="570" type="line"/>
    </contour>
  </outline>
</glyph>
<glyph name="lslash" format="2">
  <advance width="475"/>
  <unicode hex="0142"/>
  <outline>
    <contour>
      <point x="-97" y="553" type="line"/>
      <point x="219" y="735" type="line"/>
      <point x="219" y="0" type="line" name="ab01"/>
      <point x="260" y="0" type="line"/>
      <point x="260" y="759" type="line"/>
      <point x="592" y="950" type="line" name="dv01"/>
      <point x="572" y="987" type="line" name="dv02"/>
      <point x="260" y="807" type="line"/>
      <point x="260" y="1540" type="line" name="av01"/>
      <point x="219" y="1540" type="line" name="dh01"/>
      <point x="219" y="784" type="line"/>
      <point x="-117" y="590" type="line"/>
    </contour>
  </outline>
</glyph>
<glyph name="Nacute" format="1">
  <advance width="1609"/>
  <unicode hex="0143"/>
  <outline>
    <contour>
      <point x="828" y="1670" type="line"/>
      <point x="1019" y="2000" type="line"/>
      <point x="965" y="2000" type="line"/>
      <point x="794" y="1670" type="line"/>
    </contour>
    <contour>
      <point x="1424" y="0" type="line"/>
      <point x="1424" y="1500" type="line"/>
      <point x="1380" y="1500" type="line"/>
      <point x="1380" y="56" type="line"/>
      <point x="242" y="1500" type="line"/>
      <point x="185" y="1500" type="line"/>
      <point x="185" y="0" type="line"/>
      <point x="229" y="0" type="line"/>
      <point x="229" y="1444" type="line"/>
      <point x="1367" y="0" type="line"/>
    </contour>
  </outline>
</glyph>
<glyph name="uni0145" format="1">
  <advance width="1609"/>
  <unicode hex="0145"/>
  <outline>
    <contour>
      <point x="1424" y="0" type="line"/>
      <point x="1424" y="1500" type="line"/>
      <point x="1380" y="1500" type="line"/>
      <point x="1380" y="56" type="line"/>
      <point x="242" y="1500" type="line"/>
      <point x="185" y="1500" type="line"/>
      <point x="185" y="0" type="line"/>
      <point x="229" y="0" type="line"/>
      <point x="229" y="1444" type="line"/>
      <point x="1367" y="0" type="line"/>
    </contour>
    <contour>
      <point x="742" y="-442" type="line"/>
      <point x="829" y="-396"/>
      <point x="885" y="-296"/>
      <point x="885" y="-187" type="curve" smooth="yes"/>
      <point x="885" y="-149"/>
      <point x="879" y="-113"/>
      <point x="866" y="-78" type="curve"/>
      <point x="829" y="-90" type="line"/>
      <point x="842" y="-121"/>
      <point x="849" y="-154"/>
      <point x="849" y="-187" type="curve" smooth="yes"/>
      <point x="849" y="-276"/>
      <point x="804" y="-367"/>
      <point x="726" y="-418" type="curve"/>
    </contour>
  </outline>
</glyph>
<glyph name="ncommaaccent" format="1">
  <advance width="1212"/>
  <unicode hex="0146"/>
  <outline>
    <contour>
      <point x="1047" y="0" type="line"/>
      <point x="1047" y="563" type="line" smooth="yes"/>
      <point x="1047" y="851"/>
      <point x="890" y="1020"/>
      <point x="622" y="1020" type="curve" smooth="yes"/>
      <point x="426" y="1020"/>
      <point x="289" y="930"/>
      <point x="226" y="760" type="curve"/>
      <point x="226" y="1000" type="line"/>
      <point x="185" y="1000" type="line"/>
      <point x="185" y="0" type="line"/>
      <point x="226" y="0" type="line"/>
      <point x="226" y="563" type="line" smooth="yes"/>
      <point x="226" y="822"/>
      <point x="377" y="982"/>
      <point x="621" y="982" type="curve" smooth="yes"/>
      <point x="862" y="982"/>
      <point x="1006" y="826"/>
      <point x="1006" y="563" type="curve" smooth="yes"/>
      <point x="1006" y="0" type="line"/>
    </contour>
    <contour>
      <point x="542" y="-442" type="line"/>
      <point x="629" y="-396"/>
      <point x="686" y="-296"/>
      <point x="686" y="-187" type="curve" smooth="yes"/>
      <point x="686" y="-149"/>
      <point x="679" y="-113"/>
      <point x="666" y="-78" type="curve"/>
      <point x="630" y="-90" type="line"/>
      <point x="643" y="-121"/>
      <point x="649" y="-154"/>
      <point x="649" y="-187" type="curve" smooth="yes"/>
      <point x="649" y="-276"/>
      <point x="604" y="-367"/>
      <point x="526" y="-418" type="curve"/>
    </contour>
  </outline>
</glyph>
<glyph name="napostrophe" format="1">
  <advance width="1212"/>
  <unicode hex="0149"/>
  <outline>
    <contour>
      <point x="201" y="1156" type="line"/>
      <point x="288" y="1202"/>
      <point x="344" y="1302"/>
      <point x="344" y="1411" type="curve" smooth="yes"/>
      <point x="344" y="1449"/>
      <point x="338" y="1485"/>
      <point x="325" y="1520" type="curve"/>
      <point x="289" y="1508" type="line"/>
      <point x="302" y="1478"/>
      <point x="308" y="1444"/>
      <point x="308" y="1411" type="curve" smooth="yes"/>
      <point x="308" y="1322"/>
      <point x="263" y="1231"/>
      <point x="185" y="1180" type="curve"/>
    </contour>
    <contour>
      <point x="1047" y="0" type="line"/>
      <point x="1047" y="563" type="line" smooth="yes"/>
      <point x="1047" y="851"/>
      <point x="890" y="1020"/>
      <point x="622" y="1020" type="curve" smooth="yes"/>
      <point x="426" y="1020"/>
      <point x="289" y="930"/>
      <point x="226" y="760" type="curve"/>
      <point x="226" y="1000" type="line"/>
      <point x="185" y="1000" type="line"/>
      <point x="185" y="0" type="line"/>
      <point x="226" y="0" type="line"/>
      <point x="226" y="563" type="line" smooth="yes"/>
      <point x="226" y="822"/>
      <point x="377" y="982"/>
      <point x="621" y="982" type="curve" smooth="yes"/>
      <point x="862" y="982"/>
      <point x="1006" y="826"/>
      <point x="1006" y="563" type="curve" smooth="yes"/>
      <point x="1006" y="0" type="line"/>
    </contour>
  </outline>
</glyph>
<glyph name="eng" format="2">
  <advance width="1213"/>
  <unicode hex="014B"/>
  <outline>
    <contour>
      <point x="695.05" y="-513" type="line"/>
      <point x="720.05" y="-518"/>
      <point x="744.05" y="-520"/>
      <point x="767.05" y="-520" type="curve" smooth="yes"/>
      <point x="935.05" y="-520"/>
      <point x="1047.06" y="-391"/>
      <point x="1047.05" y="-183" type="curve" smooth="yes"/>
      <point x="1047" y="563" type="line" smooth="yes"/>
      <point x="1046.98" y="851"/>
      <point x="890" y="1020"/>
      <point x="622" y="1020" type="curve" smooth="yes"/>
      <point x="426" y="1020"/>
      <point x="289" y="930"/>
      <point x="226" y="760" type="curve"/>
      <point x="226" y="1000" type="line"/>
      <point x="185" y="1000" type="line"/>
      <point x="185" y="0" type="line"/>
      <point x="226" y="0" type="line"/>
      <point x="226" y="563" type="line" smooth="yes"/>
      <point x="226" y="822"/>
      <point x="377" y="982"/>
      <point x="621" y="982" type="curve" smooth="yes"/>
      <point x="862" y="982"/>
      <point x="1005.98" y="826"/>
      <point x="1006" y="563" type="curve" smooth="yes"/>
      <point x="1006.05" y="-183" type="line" smooth="yes"/>
      <point x="1006.06" y="-363"/>
      <point x="901.05" y="-483"/>
      <point x="755.05" y="-483" type="curve" smooth="yes"/>
      <point x="737.05" y="-483"/>
      <point x="718.05" y="-481"/>
      <point x="699.05" y="-477" type="curve"/>
    </contour>
  </outline>
</glyph>
<glyph name="racute" format="1">
  <advance width="758"/>
  <unicode hex="0155"/>
  <outline>
    <contour>
      <point x="360" y="1170" type="line"/>
      <point x="551" y="1500" type="line"/>
      <point x="498" y="1500" type="line"/>
      <point x="327" y="1170" type="line"/>
    </contour>
    <contour>
      <point x="226" y="0" type="line"/>
      <point x="226" y="534" type="line" smooth="yes"/>
      <point x="226" y="796"/>
      <point x="395" y="982"/>
      <point x="632" y="982" type="curve" smooth="yes"/>
      <point x="657" y="982"/>
      <point x="682" y="980"/>
      <point x="708" y="976" type="curve"/>
      <point x="713" y="1014" type="line"/>
      <point x="686" y="1018"/>
      <point x="660" y="1020"/>
      <point x="633" y="1020" type="curve" smooth="yes"/>
      <point x="434" y="1020"/>
      <point x="285" y="922"/>
      <point x="225" y="733" type="curve"/>
      <point x="225" y="1000" type="line"/>
      <point x="185" y="1000" type="line"/>
      <point x="185" y="0" type="line"/>
    </contour>
  </outline>
</glyph>
<glyph name="scedilla" format="1">
  <advance width="860"/>
  <unicode hex="015F"/>
  <outline>
    <contour>
      <point x="135" y="88" type="line"/>
      <point x="213" y="24"/>
      <point x="305" y="-13"/>
      <point x="400" y="-19" type="curve"/>
      <point x="355" y="-135" type="line"/>
      <point x="370" y="-133"/>
      <point x="384" y="-132"/>
      <point x="397" y="-132" type="curve" smooth="yes"/>
      <point x="491" y="-132"/>
      <point x="557" y="-177"/>
      <point x="557" y="-246" type="curve" smooth="yes"/>
      <point x="557" y="-318"/>
      <point x="485" y="-369"/>
      <point x="384" y="-369" type="curve" smooth="yes"/>
      <point x="348" y="-369"/>
      <point x="311" y="-362"/>
      <point x="275" y="-349" type="curve"/>
      <point x="262" y="-388" type="line"/>
      <point x="308" y="-401"/>
      <point x="351" y="-407"/>
      <point x="389" y="-407" type="curve" smooth="yes"/>
      <point x="511" y="-407"/>
      <point x="599" y="-341"/>
      <point x="599" y="-249" type="curve" smooth="yes"/>
      <point x="599" y="-159"/>
      <point x="518" y="-100"/>
      <point x="410" y="-100" type="curve"/>
      <point x="441" y="-20" type="line"/>
      <point x="621" y="-15"/>
      <point x="745" y="99"/>
      <point x="745" y="261" type="curve" smooth="yes"/>
      <point x="745" y="435"/>
      <point x="602" y="496"/>
      <point x="466" y="554" type="curve" smooth="yes"/>
      <point x="343" y="606"/>
      <point x="225" y="656"/>
      <point x="225" y="785" type="curve" smooth="yes"/>
      <point x="225" y="902"/>
      <point x="323" y="982"/>
      <point x="466" y="982" type="curve" smooth="yes"/>
      <point x="534" y="982"/>
      <point x="610" y="964"/>
      <point x="664" y="934" type="curve"/>
      <point x="681" y="970" type="line"/>
      <point x="611" y="1003"/>
      <point x="537" y="1020"/>
      <point x="464" y="1020" type="curve" smooth="yes"/>
      <point x="293" y="1020"/>
      <point x="183" y="928"/>
      <point x="183" y="785" type="curve" smooth="yes"/>
      <point x="183" y="630"/>
      <point x="314" y="576"/>
      <point x="444" y="521" type="curve" smooth="yes"/>
      <point x="574" y="467"/>
      <point x="703" y="413"/>
      <point x="703" y="262" type="curve" smooth="yes"/>
      <point x="703" y="119"/>
      <point x="587" y="18"/>
      <point x="426" y="18" type="curve" smooth="yes" name="ih01"/>
      <point x="330" y="18"/>
      <point x="235" y="55"/>
      <point x="158" y="121" type="curve"/>
    </contour>
  </outline>
</glyph>
<glyph name="Tcedilla" format="1">
  <advance width="1218"/>
  <unicode hex="0162"/>
  <outline>
    <contour>
      <point x="631" y="0" type="line"/>
      <point x="631" y="1458" type="line"/>
      <point x="1153" y="1458" type="line"/>
      <point x="1153" y="1500" type="line"/>
      <point x="65" y="1500" type="line"/>
      <point x="65" y="1458" type="line"/>
      <point x="587" y="1458" type="line"/>
      <point x="587" y="0" type="line"/>
      <point x="588" y="0" type="line"/>
      <point x="536" y="-135" type="line"/>
      <point x="551" y="-133"/>
      <point x="565" y="-132"/>
      <point x="578" y="-132" type="curve" smooth="yes"/>
      <point x="672" y="-132"/>
      <point x="738" y="-177"/>
      <point x="738" y="-246" type="curve" smooth="yes"/>
      <point x="738" y="-318"/>
      <point x="666" y="-369"/>
      <point x="565" y="-369" type="curve" smooth="yes"/>
      <point x="529" y="-369"/>
      <point x="491" y="-362"/>
      <point x="455" y="-349" type="curve"/>
      <point x="443" y="-388" type="line"/>
      <point x="489" y="-401"/>
      <point x="532" y="-407"/>
      <point x="570" y="-407" type="curve" smooth="yes"/>
      <point x="692" y="-407"/>
      <point x="779" y="-341"/>
      <point x="779" y="-249" type="curve" smooth="yes"/>
      <point x="779" y="-159"/>
      <point x="699" y="-100"/>
      <point x="591" y="-100" type="curve"/>
      <point x="629" y="0" type="line"/>
    </contour>
  </outline>
</glyph>
<glyph name="tcaron" format="1">
  <advance width="906"/>
  <unicode hex="0165"/>
  <outline>
    <contour>
      <point x="748" y="1070" type="line"/>
      <point x="861" y="1520" type="line"/>
      <point x="818" y="1520" type="line" name="av01"/>
      <point x="717" y="1070" type="line"/>
    </contour>
    <contour>
      <point x="638" y="21" type="curve"/>
      <point x="622" y="56" type="line"/>
      <point x="575" y="31"/>
      <point x="529" y="18"/>
      <point x="485" y="18" type="curve" smooth="yes"/>
      <point x="368" y="18"/>
      <point x="291" y="107"/>
      <point x="291" y="243" type="curve" smooth="yes"/>
      <point x="291" y="962" type="line"/>
      <point x="611" y="962" type="line"/>
      <point x="611" y="1000" type="line"/>
      <point x="291" y="1000" type="line"/>
      <point x="291" y="1250" type="line"/>
      <point x="250" y="1250" type="line"/>
      <point x="250" y="1000" type="line"/>
      <point x="75" y="1000" type="line"/>
      <point x="75" y="962" type="line"/>
      <point x="250" y="962" type="line"/>
      <point x="250" y="236" type="line" smooth="yes"/>
      <point x="250" y="81"/>
      <point x="342" y="-20"/>
      <point x="482" y="-20" type="curve" smooth="yes"/>
      <point x="533" y="-20"/>
      <point x="587" y="-6"/>
    </contour>
  </outline>
</glyph>
<glyph name="Utilde" format="1">
  <advance width="1578"/>
  <unicode hex="0168"/>
  <outline>
    <contour>
      <point x="1081" y="1926" type="curve"/>
      <point x="1040" y="1926" type="line"/>
      <point x="1025" y="1852"/>
      <point x="986" y="1813"/>
      <point x="925" y="1813" type="curve" smooth="yes"/>
      <point x="874" y="1813"/>
      <point x="839" y="1841"/>
      <point x="803" y="1871" type="curve" smooth="yes"/>
      <point x="764" y="1903"/>
      <point x="722" y="1937"/>
      <point x="655" y="1937" type="curve" smooth="yes"/>
      <point x="571" y="1937"/>
      <point x="516" y="1884"/>
      <point x="497" y="1785" type="curve"/>
      <point x="538" y="1785" type="line"/>
      <point x="553" y="1859"/>
      <point x="595" y="1900"/>
      <point x="655" y="1900" type="curve" smooth="yes"/>
      <point x="705" y="1900"/>
      <point x="740" y="1871"/>
      <point x="776" y="1841" type="curve" smooth="yes"/>
      <point x="820" y="1804"/>
      <point x="859" y="1775"/>
      <point x="919" y="1775" type="curve" smooth="yes"/>
      <point x="1002" y="1775"/>
      <point x="1063" y="1832"/>
    </contour>
    <contour>
      <point x="1393" y="1500" type="line"/>
      <point x="1349" y="1500" type="line"/>
      <point x="1349" y="657" type="line" smooth="yes"/>
      <point x="1349" y="262"/>
      <point x="1132" y="12"/>
      <point x="789" y="12" type="curve" smooth="yes"/>
      <point x="447" y="12"/>
      <point x="229" y="263"/>
      <point x="229" y="657" type="curve" smooth="yes"/>
      <point x="229" y="1500" type="line"/>
      <point x="185" y="1500" type="line"/>
      <point x="185" y="667" type="line" smooth="yes"/>
      <point x="185" y="233"/>
      <point x="413" y="-30"/>
      <point x="789" y="-30" type="curve" smooth="yes"/>
      <point x="1166" y="-30"/>
      <point x="1393" y="232"/>
      <point x="1393" y="667" type="curve" smooth="yes"/>
    </contour>
  </outline>
</glyph>
<glyph name="utilde" format="1">
  <advance width="1192"/>
  <unicode hex="0169"/>
  <outline>
    <contour>
      <point x="889" y="1426" type="curve"/>
      <point x="848" y="1426" type="line"/>
      <point x="833" y="1352"/>
      <point x="793" y="1313"/>
      <point x="732" y="1313" type="curve" smooth="yes"/>
      <point x="681" y="1313"/>
      <point x="647" y="1341"/>
      <point x="611" y="1371" type="curve" smooth="yes"/>
      <point x="572" y="1403"/>
      <point x="530" y="1437"/>
      <point x="463" y="1437" type="curve" smooth="yes"/>
      <point x="379" y="1437"/>
      <point x="323" y="1384"/>
      <point x="304" y="1285" type="curve"/>
      <point x="345" y="1285" type="line"/>
      <point x="360" y="1359"/>
      <point x="403" y="1400"/>
      <point x="463" y="1400" type="curve" smooth="yes"/>
      <point x="513" y="1400"/>
      <point x="547" y="1371"/>
      <point x="583" y="1341" type="curve" smooth="yes"/>
      <point x="627" y="1304"/>
      <point x="666" y="1275"/>
      <point x="726" y="1275" type="curve" smooth="yes"/>
      <point x="809" y="1275"/>
      <point x="871" y="1332"/>
    </contour>
    <contour>
      <point x="1007" y="0" type="line"/>
      <point x="1007" y="1000" type="line"/>
      <point x="966" y="1000" type="line"/>
      <point x="966" y="437" type="line" smooth="yes"/>
      <point x="966" y="178"/>
      <point x="819" y="18"/>
      <point x="582" y="18" type="curve" smooth="yes"/>
      <point x="346" y="18"/>
      <point x="206" y="174"/>
      <point x="206" y="437" type="curve" smooth="yes"/>
      <point x="206" y="1000" type="line"/>
      <point x="165" y="1000" type="line"/>
      <point x="165" y="437" type="line" smooth="yes"/>
      <point x="165" y="149"/>
      <point x="319" y="-20"/>
      <point x="580" y="-20" type="curve" smooth="yes"/>
      <point x="771" y="-20"/>
      <point x="905" y="71"/>
      <point x="968" y="239" type="curve"/>
      <point x="968" y="0" type="line"/>
    </contour>
  </outline>
</glyph>
<glyph name="Wcircumflex" format="1">
  <advance width="2088"/>
  <unicode hex="0174"/>
  <outline>
    <contour>
      <point x="1278" y="1670" type="line"/>
      <point x="1073" y="2000" type="line" name="at01"/>
      <point x="1015" y="2000" type="line" name="at01.1"/>
      <point x="810" y="1670" type="line"/>
      <point x="845" y="1670" type="line" name="av01"/>
      <point x="1044" y="1966" type="line"/>
      <point x="1243" y="1670" type="line" name="av01.1"/>
    </contour>
    <contour>
      <point x="1517" y="0" type="line"/>
      <point x="2003" y="1500" type="line"/>
      <point x="1957" y="1500" type="line"/>
      <point x="1507" y="112" type="line"/>
      <point x="1056" y="1500" type="line"/>
      <point x="1035" y="1500" type="line"/>
      <point x="584" y="110" type="line"/>
      <point x="131" y="1500" type="line"/>
      <point x="85" y="1500" type="line"/>
      <point x="573" y="0" type="line"/>
      <point x="594" y="0" type="line"/>
      <point x="1046" y="1391" type="line"/>
      <point x="1496" y="0" type="line"/>
    </contour>
  </outline>
</glyph>
<glyph name="wcircumflex" format="1">
  <advance width="1552"/>
  <unicode hex="0175"/>
  <outline>
    <contour>
      <point x="1010" y="1170" type="line"/>
      <point x="805" y="1500" type="line" name="at01"/>
      <point x="747" y="1500" type="line" name="at01.1"/>
      <point x="542" y="1170" type="line"/>
      <point x="577" y="1170" type="line" name="av01"/>
      <point x="776" y="1466" type="line"/>
      <point x="975" y="1170" type="line" name="av01.1"/>
    </contour>
    <contour>
      <point x="1130" y="0" type="line"/>
      <point x="1467" y="1000" type="line"/>
      <point x="1424" y="1000" type="line"/>
      <point x="1110" y="69" type="line"/>
      <point x="796" y="1000" type="line"/>
      <point x="755" y="1000" type="line"/>
      <point x="441" y="69" type="line"/>
      <point x="128" y="1000" type="line"/>
      <point x="85" y="1000" type="line"/>
      <point x="421" y="0" type="line"/>
      <point x="462" y="0" type="line"/>
      <point x="775" y="932" type="line"/>
      <point x="1089" y="0" type="line"/>
    </contour>
  </outline>
</glyph>
<glyph name="Zacute" format="1">
  <advance width="1447"/>
  <unicode hex="0179"/>
  <outline>
    <contour>
      <point x="747" y="1670" type="line"/>
      <point x="938" y="2000" type="line"/>
      <point x="884" y="2000" type="line"/>
      <point x="713" y="1670" type="line"/>
    </contour>
    <contour>
      <point x="1272" y="0" type="line"/>
      <point x="1272" y="42" type="line"/>
      <point x="232" y="42" type="line"/>
      <point x="1252" y="1448" type="line"/>
      <point x="1252" y="1500" type="line"/>
      <point x="215" y="1500" type="line"/>
      <point x="215" y="1458" type="line"/>
      <point x="1205" y="1458" type="line"/>
      <point x="175" y="42" type="line"/>
      <point x="175" y="0" type="line"/>
    </contour>
  </outline>
</glyph>
<glyph name="Zcaron" format="1">
  <advance width="1447"/>
  <unicode hex="017D"/>
  <outline>
    <contour>
      <point x="772" y="1670" type="line" name="at01"/>
      <point x="977" y="2000" type="line"/>
      <point x="943" y="2000" type="line" name="av01"/>
      <point x="744" y="1704" type="line"/>
      <point x="544" y="2000" type="line" name="av01.1"/>
      <point x="510" y="2000" type="line"/>
      <point x="715" y="1670" type="line" name="at01.1"/>
    </contour>
    <contour>
      <point x="1272" y="0" type="line"/>
      <point x="1272" y="42" type="line"/>
      <point x="232" y="42" type="line"/>
      <point x="1252" y="1448" type="line"/>
      <point x="1252" y="1500" type="line"/>
      <point x="215" y="1500" type="line"/>
      <point x="215" y="1458" type="line"/>
      <point x="1205" y="1458" type="line"/>
      <point x="175" y="42" type="line"/>
      <point x="175" y="0" type="line"/>
    </contour>
  </outline>
</glyph>
<glyph name="florin" format="1">
  <advance width="932"/>
  <unicode hex="0192"/>
  <outline>
    <contour>
      <point x="770" y="962" type="line"/>
      <point x="772" y="1000" type="line"/>
      <point x="500" y="1000" type="line"/>
      <point x="519" y="1263" type="line" smooth="yes"/>
      <point x="529" y="1402"/>
      <point x="608" y="1492"/>
      <point x="721" y="1492" type="curve" smooth="yes"/>
      <point x="762" y="1492"/>
      <point x="805" y="1480"/>
      <point x="847" y="1457" type="curve"/>
      <point x="867" y="1489" type="line"/>
      <point x="815" y="1516"/>
      <point x="764" y="1530"/>
      <point x="715" y="1530" type="curve" smooth="yes"/>
      <point x="580" y="1530"/>
      <point x="486" y="1424"/>
      <point x="475" y="1261" type="curve" smooth="yes"/>
      <point x="456" y="1000" type="line"/>
      <point x="242" y="1000" type="line"/>
      <point x="240" y="962" type="line"/>
      <point x="454" y="962" type="line"/>
      <point x="403" y="237" type="line" smooth="yes"/>
      <point x="393" y="99"/>
      <point x="312" y="8"/>
      <point x="200" y="8" type="curve" smooth="yes"/>
      <point x="159" y="8"/>
      <point x="116" y="20"/>
      <point x="74" y="43" type="curve"/>
      <point x="55" y="10" type="line"/>
      <point x="105" y="-16"/>
      <point x="156" y="-30"/>
      <point x="204" y="-30" type="curve" smooth="yes"/>
      <point x="338" y="-30"/>
      <point x="436" y="79"/>
      <point x="447" y="242" type="curve" smooth="yes"/>
      <point x="498" y="962" type="line"/>
    </contour>
  </outline>
</glyph>
<glyph name="uni021B" format="1">
  <advance width="793"/>
  <unicode hex="021B"/>
  <outline>
    <contour>
      <point x="678" y="21" type="curve"/>
      <point x="662" y="56" type="line"/>
      <point x="615" y="31"/>
      <point x="569" y="18"/>
      <point x="525" y="18" type="curve" smooth="yes"/>
      <point x="408" y="18"/>
      <point x="331" y="107"/>
      <point x="331" y="243" type="curve" smooth="yes"/>
      <point x="331" y="962" type="line"/>
      <point x="651" y="962" type="line"/>
      <point x="651" y="1000" type="line"/>
      <point x="331" y="1000" type="line"/>
      <point x="331" y="1250" type="line"/>
      <point x="290" y="1250" type="line"/>
      <point x="290" y="1000" type="line"/>
      <point x="115" y="1000" type="line"/>
      <point x="115" y="962" type="line"/>
      <point x="290" y="962" type="line"/>
      <point x="290" y="236" type="line" smooth="yes"/>
      <point x="290" y="81"/>
      <point x="382" y="-20"/>
      <point x="522" y="-20" type="curve" smooth="yes"/>
      <point x="573" y="-20"/>
      <point x="627" y="-6"/>
    </contour>
    <contour>
      <point x="334" y="-442" type="line"/>
      <point x="421" y="-396"/>
      <point x="477" y="-296"/>
      <point x="477" y="-187" type="curve" smooth="yes"/>
      <point x="477" y="-149"/>
      <point x="471" y="-113"/>
      <point x="458" y="-78" type="curve"/>
      <point x="421" y="-90" type="line"/>
      <point x="434" y="-121"/>
      <point x="441" y="-154"/>
      <point x="441" y="-187" type="curve" smooth="yes"/>
      <point x="441" y="-276"/>
      <point x="396" y="-367"/>
      <point x="318" y="-418" type="curve"/>
    </contour>
  </outline>
</glyph>
<glyph name="jdotless" format="2">
  <advance width="442"/>
  <unicode hex="0237"/>
  <anchor x="221" y="-500" name="bottom"/>
  <anchor x="245" y="1000" name="top"/>
  <outline>
    <contour>
      <point x="-85" y="-513" type="line"/>
      <point x="-60" y="-518"/>
      <point x="-36" y="-520"/>
      <point x="-13" y="-520" type="curve" smooth="yes"/>
      <point x="155" y="-520"/>
      <point x="267" y="-391"/>
      <point x="267" y="-183" type="curve" smooth="yes"/>
      <point x="267" y="1000" type="line"/>
      <point x="225" y="1000" type="line"/>
      <point x="225" y="-183" type="line" smooth="yes"/>
      <point x="225" y="-363"/>
      <point x="121" y="-483"/>
      <point x="-25" y="-483" type="curve" smooth="yes"/>
      <point x="-43" y="-483"/>
      <point x="-62" y="-481"/>
      <point x="-81" y="-477" type="curve"/>
    </contour>
  </outline>
</glyph>
<glyph name="caron" format="1">
  <advance width="837"/>
  <unicode hex="02C7"/>
  <outline>
    <contour>
      <point x="447" y="1170" type="line" name="at01"/>
      <point x="652" y="1500" type="line"/>
      <point x="618" y="1500" type="line" name="av01"/>
      <point x="419" y="1204" type="line"/>
      <point x="220" y="1500" type="line" name="av01.1"/>
      <point x="185" y="1500" type="line"/>
      <point x="390" y="1170" type="line" name="at01.1"/>
    </contour>
  </outline>
</glyph>
<glyph name="macronmod" format="1">
  <advance width="990"/>
  <unicode hex="02C9"/>
  <outline>
    <contour>
      <point x="805" y="1345" type="line" name="av02"/>
      <point x="805" y="1383" type="line"/>
      <point x="185" y="1383" type="line" name="av01"/>
      <point x="185" y="1345" type="line"/>
    </contour>
  </outline>
</glyph>
<glyph name="dotaccent" format="1">
  <advance width="470"/>
  <unicode hex="02D9"/>
  <outline>
    <contour>
      <point x="235" y="1290" type="curve" smooth="yes"/>
      <point x="264" y="1290"/>
      <point x="285" y="1311"/>
      <point x="285" y="1340" type="curve" smooth="yes"/>
      <point x="285" y="1369"/>
      <point x="264" y="1390"/>
      <point x="235" y="1390" type="curve" smooth="yes"/>
      <point x="207" y="1390"/>
      <point x="185" y="1369"/>
      <point x="185" y="1340" type="curve" smooth="yes"/>
      <point x="185" y="1311"/>
      <point x="207" y="1290"/>
    </contour>
  </outline>
</glyph>
<glyph name="tilde" format="1">
  <advance width="955"/>
  <unicode hex="02DC"/>
  <outline>
    <contour>
      <point x="770" y="1426" type="curve"/>
      <point x="729" y="1426" type="line"/>
      <point x="714" y="1352"/>
      <point x="674" y="1313"/>
      <point x="613" y="1313" type="curve" smooth="yes"/>
      <point x="562" y="1313"/>
      <point x="528" y="1341"/>
      <point x="492" y="1371" type="curve" smooth="yes"/>
      <point x="453" y="1403"/>
      <point x="411" y="1437"/>
      <point x="344" y="1437" type="curve" smooth="yes"/>
      <point x="260" y="1437"/>
      <point x="204" y="1384"/>
      <point x="185" y="1285" type="curve"/>
      <point x="226" y="1285" type="line"/>
      <point x="241" y="1359"/>
      <point x="284" y="1400"/>
      <point x="344" y="1400" type="curve" smooth="yes"/>
      <point x="394" y="1400"/>
      <point x="428" y="1371"/>
      <point x="464" y="1341" type="curve" smooth="yes"/>
      <point x="508" y="1304"/>
      <point x="547" y="1275"/>
      <point x="607" y="1275" type="curve" smooth="yes"/>
      <point x="690" y="1275"/>
      <point x="752" y="1332"/>
    </contour>
  </outline>
</glyph>
<glyph name="hungarumlaut" format="1">
  <advance width="826"/>
  <unicode hex="02DD"/>
  <outline>
    <contour>
      <point x="133" y="1170" type="line"/>
      <point x="324" y="1500" type="line"/>
      <point x="271" y="1500" type="line"/>
      <point x="100" y="1170" type="line"/>
    </contour>
    <contour>
      <point x="484" y="1170" type="line"/>
      <point x="675" y="1500" type="line"/>
      <point x="622" y="1500" type="line"/>
      <point x="450" y="1170" type="line"/>
    </contour>
  </outline>
</glyph>
<glyph name="gravecomb" format="2">
  <unicode hex="0300"/>
  <anchor x="300" y="1000" name="_top"/>
  <anchor x="227" y="1500" name="top"/>
  <outline>
    <contour>
      <point x="339" y="1170" type="line"/>
      <point x="167" y="1500" type="line"/>
      <point x="115" y="1500" type="line"/>
      <point x="305" y="1170" type="line"/>
    </contour>
  </outline>
</glyph>
<glyph name="acutecomb" format="2">
  <unicode hex="0301"/>
  <anchor x="153" y="1000" name="_top"/>
  <anchor x="237" y="1500" name="top"/>
  <outline>
    <contour>
      <point x="158" y="1170" type="line"/>
      <point x="349" y="1500" type="line"/>
      <point x="296" y="1500" type="line"/>
      <point x="125" y="1170" type="line"/>
    </contour>
  </outline>
</glyph>
<glyph name="dieresiscomb" format="2">
  <unicode hex="0308"/>
  <anchor x="436" y="1000" name="_top"/>
  <anchor x="436" y="1403" name="top"/>
  <outline>
    <contour>
      <point x="647" y="1303" type="curve" smooth="yes"/>
      <point x="677" y="1303"/>
      <point x="697" y="1323"/>
      <point x="697" y="1353" type="curve" smooth="yes"/>
      <point x="697" y="1383"/>
      <point x="677" y="1403"/>
      <point x="647" y="1403" type="curve" smooth="yes"/>
      <point x="617" y="1403"/>
      <point x="597" y="1383"/>
      <point x="597" y="1353" type="curve" smooth="yes"/>
      <point x="597" y="1323"/>
      <point x="617" y="1303"/>
    </contour>
    <contour>
      <point x="225" y="1303" type="curve" smooth="yes"/>
      <point x="255" y="1303"/>
      <point x="275" y="1323"/>
      <point x="275" y="1353" type="curve" smooth="yes"/>
      <point x="275" y="1383"/>
      <point x="255" y="1403"/>
      <point x="225" y="1403" type="curve" smooth="yes"/>
      <point x="195" y="1403"/>
      <point x="175" y="1383"/>
      <point x="175" y="1353" type="curve" smooth="yes"/>
      <point x="175" y="1323"/>
      <point x="195" y="1303"/>
    </contour>
  </outline>
</glyph>
<glyph name="commaturnedabovecomb" format="2">
  <unicode hex="0312"/>
  <anchor x="630" y="1000" name="_top"/>
  <anchor x="630" y="1620" name="top"/>
  <outline>
    <contour>
      <point x="601" y="1170" type="line" name="av01"/>
      <point x="702" y="1620" type="line"/>
      <point x="671" y="1620" type="line"/>
      <point x="557" y="1170" type="line"/>
    </contour>
  </outline>
</glyph>
<glyph name="cedillacomb" format="2">
  <unicode hex="0327"/>
  <anchor x="323" y="0" name="_bottom"/>
  <anchor x="323" y="-407" name="bottom"/>
  <outline>
    <contour>
      <point x="155" y="-388" type="line"/>
      <point x="201" y="-401"/>
      <point x="244" y="-407"/>
      <point x="282" y="-407" type="curve" smooth="yes"/>
      <point x="404" y="-407"/>
      <point x="491" y="-341"/>
      <point x="491" y="-249" type="curve" smooth="yes"/>
      <point x="491" y="-159"/>
      <point x="411" y="-100"/>
      <point x="303" y="-100" type="curve"/>
      <point x="344" y="7" type="line" name="ih01"/>
      <point x="303" y="7" type="line"/>
      <point x="248" y="-135" type="line"/>
      <point x="263" y="-133"/>
      <point x="277" y="-132"/>
      <point x="290" y="-132" type="curve" smooth="yes"/>
      <point x="384" y="-132"/>
      <point x="450" y="-177"/>
      <point x="450" y="-246" type="curve" smooth="yes"/>
      <point x="450" y="-318"/>
      <point x="378" y="-369"/>
      <point x="277" y="-369" type="curve" smooth="yes"/>
      <point x="241" y="-369"/>
      <point x="203" y="-362"/>
      <point x="167" y="-349" type="curve"/>
    </contour>
  </outline>
</glyph>
<glyph name="Wgrave" format="1">
  <advance width="2088"/>
  <unicode hex="1E80"/>
  <outline>
    <contour>
      <point x="1025" y="1670" type="line"/>
      <point x="853" y="2000" type="line"/>
      <point x="800" y="2000" type="line"/>
      <point x="991" y="1670" type="line"/>
    </contour>
    <contour>
      <point x="1517" y="0" type="line"/>
      <point x="2003" y="1500" type="line"/>
      <point x="1957" y="1500" type="line"/>
      <point x="1507" y="112" type="line"/>
      <point x="1056" y="1500" type="line"/>
      <point x="1035" y="1500" type="line"/>
      <point x="584" y="110" type="line"/>
      <point x="131" y="1500" type="line"/>
      <point x="85" y="1500" type="line"/>
      <point x="573" y="0" type="line"/>
      <point x="594" y="0" type="line"/>
      <point x="1046" y="1391" type="line"/>
      <point x="1496" y="0" type="line"/>
    </contour>
  </outline>
</glyph>
<glyph name="Ygrave" format="1">
  <advance width="1348"/>
  <unicode hex="1EF2"/>
  <outline>
    <contour>
      <point x="695" y="0" type="line"/>
      <point x="695" y="641" type="line"/>
      <point x="1293" y="1500" type="line"/>
      <point x="1240" y="1500" type="line"/>
      <point x="674" y="686" type="line"/>
      <point x="108" y="1500" type="line"/>
      <point x="55" y="1500" type="line"/>
      <point x="651" y="641" type="line"/>
      <point x="651" y="0" type="line"/>
    </contour>
    <contour>
      <point x="786" y="1670" type="line"/>
      <point x="614" y="2000" type="line"/>
      <point x="562" y="2000" type="line"/>
      <point x="752" y="1670" type="line"/>
    </contour>
  </outline>
</glyph>
<glyph name="quoteleft" format="2">
  <advance width="514"/>
  <unicode hex="2018"/>
  <outline>
    <contour>
      <point x="228" y="1070" type="line" name="av01"/>
      <point x="329" y="1520" type="line"/>
      <point x="298" y="1520" type="line"/>
      <point x="185" y="1070" type="line"/>
    </contour>
  </outline>
</glyph>
<glyph name="quoteright" format="2">
  <advance width="514"/>
  <unicode hex="2019"/>
  <outline>
    <contour>
      <point x="216" y="1070" type="line"/>
      <point x="329" y="1520" type="line"/>
      <point x="286" y="1520" type="line" name="av01"/>
      <point x="185" y="1070" type="line"/>
    </contour>
  </outline>
</glyph>
<glyph name="quotedblright" format="1">
  <advance width="842"/>
  <unicode hex="201D"/>
  <outline>
    <contour>
      <point x="544" y="1070" type="line"/>
      <point x="657" y="1520" type="line"/>
      <point x="614" y="1520" type="line" name="av01"/>
      <point x="513" y="1070" type="line"/>
    </contour>
    <contour>
      <point x="215" y="1070" type="line"/>
      <point x="329" y="1520" type="line"/>
      <point x="286" y="1520" type="line" name="av01.1"/>
      <point x="185" y="1070" type="line"/>
    </contour>
  </outline>
</glyph>
<glyph name="quotedblbase" format="2">
  <advance width="788"/>
  <unicode hex="201E"/>
  <outline>
    <contour>
      <point x="515" y="-240" type="line"/>
      <point x="633" y="180" type="line"/>
      <point x="583" y="180" type="line" name="av01"/>
      <point x="480" y="-240" type="line"/>
    </contour>
    <contour>
      <point x="180" y="-240" type="line"/>
      <point x="298" y="180" type="line"/>
      <point x="248" y="180" type="line" name="av01"/>
      <point x="145" y="-240" type="line"/>
    </contour>
  </outline>
</glyph>
<glyph name="perthousand" format="2">
  <advance width="2549"/>
  <unicode hex="2030"/>
  <outline>
    <contour>
      <point x="439" y="873" type="curve" smooth="yes"/>
      <point x="633" y="873"/>
      <point x="763" y="1002"/>
      <point x="763" y="1196" type="curve" smooth="yes"/>
      <point x="763" y="1391"/>
      <point x="634" y="1520"/>
      <point x="439" y="1520" type="curve" smooth="yes"/>
      <point x="245" y="1520"/>
      <point x="115" y="1391"/>
      <point x="115" y="1196" type="curve" smooth="yes"/>
      <point x="115" y="1002"/>
      <point x="245" y="873"/>
    </contour>
    <contour>
      <point x="404" y="0" type="line"/>
      <point x="1371" y="1500" type="line"/>
      <point x="1319" y="1500" type="line"/>
      <point x="352" y="0" type="line"/>
    </contour>
    <contour>
      <point x="439" y="915" type="curve" smooth="yes"/>
      <point x="271" y="915"/>
      <point x="160" y="1027"/>
      <point x="160" y="1196" type="curve" smooth="yes"/>
      <point x="160" y="1366"/>
      <point x="271" y="1478"/>
      <point x="439" y="1478" type="curve" smooth="yes"/>
      <point x="606" y="1478"/>
      <point x="718" y="1365"/>
      <point x="718" y="1196" type="curve" smooth="yes"/>
      <point x="718" y="1028"/>
      <point x="606" y="915"/>
    </contour>
    <contour>
      <point x="2110" y="-10" type="curve" smooth="yes"/>
      <point x="2304" y="-10"/>
      <point x="2434" y="119"/>
      <point x="2434" y="313" type="curve" smooth="yes"/>
      <point x="2434" y="508"/>
      <point x="2305" y="637"/>
      <point x="2110" y="637" type="curve" smooth="yes"/>
      <point x="1916" y="637"/>
      <point x="1786" y="508"/>
      <point x="1786" y="313" type="curve" smooth="yes"/>
      <point x="1786" y="119"/>
      <point x="1916" y="-10"/>
    </contour>
    <contour>
      <point x="1283" y="-20" type="curve" smooth="yes"/>
      <point x="1477" y="-20"/>
      <point x="1607" y="109"/>
      <point x="1607" y="303" type="curve" smooth="yes"/>
      <point x="1607" y="498"/>
      <point x="1478" y="627"/>
      <point x="1283" y="627" type="curve" smooth="yes"/>
      <point x="1089" y="627"/>
      <point x="959" y="498"/>
      <point x="959" y="303" type="curve" smooth="yes"/>
      <point x="959" y="109"/>
      <point x="1089" y="-20"/>
    </contour>
    <contour>
      <point x="2110" y="32" type="curve" smooth="yes"/>
      <point x="1942" y="32"/>
      <point x="1831" y="144"/>
      <point x="1831" y="313" type="curve" smooth="yes"/>
      <point x="1831" y="483"/>
      <point x="1942" y="595"/>
      <point x="2110" y="595" type="curve" smooth="yes"/>
      <point x="2277" y="595"/>
      <point x="2389" y="482"/>
      <point x="2389" y="313" type="curve" smooth="yes"/>
      <point x="2389" y="145"/>
      <point x="2277" y="32"/>
    </contour>
    <contour>
      <point x="1283" y="22" type="curve" smooth="yes"/>
      <point x="1115" y="22"/>
      <point x="1004" y="134"/>
      <point x="1004" y="303" type="curve" smooth="yes"/>
      <point x="1004" y="473"/>
      <point x="1115" y="585"/>
      <point x="1283" y="585" type="curve" smooth="yes"/>
      <point x="1450" y="585"/>
      <point x="1562" y="472"/>
      <point x="1562" y="303" type="curve" smooth="yes"/>
      <point x="1562" y="135"/>
      <point x="1450" y="22"/>
    </contour>
  </outline>
</glyph>
<glyph name="minute" format="1">
  <advance width="425"/>
  <unicode hex="2032"/>
  <outline>
    <contour>
      <point x="232" y="1085" type="line"/>
      <point x="240" y="1520" type="line"/>
      <point x="185" y="1520" type="line"/>
      <point x="193" y="1085" type="line"/>
    </contour>
  </outline>
</glyph>
<glyph name="second" format="1">
  <advance width="733"/>
  <unicode hex="2033"/>
  <outline>
    <contour>
      <point x="232" y="1085" type="line"/>
      <point x="240" y="1520" type="line"/>
      <point x="185" y="1520" type="line"/>
      <point x="193" y="1085" type="line"/>
    </contour>
    <contour>
      <point x="540" y="1085" type="line"/>
      <point x="548" y="1520" type="line"/>
      <point x="493" y="1520" type="line"/>
      <point x="501" y="1085" type="line"/>
    </contour>
  </outline>
</glyph>
<glyph name="fraction" format="2">
  <advance width="1150"/>
  <unicode hex="2044"/>
  <outline>
    <contour>
      <point x="94" y="0" type="line" name="av01"/>
      <point x="1105" y="1540" type="line" name="at01"/>
      <point x="1063" y="1540" type="line"/>
      <point x="45" y="0" type="line"/>
    </contour>
  </outline>
</glyph>
<glyph name="Euro" format="2">
  <advance width="1121"/>
  <unicode hex="20AC"/>
  <outline>
    <contour>
      <point x="879" y="874" type="line"/>
      <point x="884" y="916" type="line"/>
      <point x="323" y="916" type="line"/>
      <point x="386" y="1257"/>
      <point x="644" y="1488"/>
      <point x="986" y="1488" type="curve"/>
      <point x="986" y="1530" type="line"/>
      <point x="617" y="1530"/>
      <point x="341" y="1282"/>
      <point x="277" y="916" type="curve"/>
      <point x="110" y="916" type="line"/>
      <point x="105" y="874" type="line"/>
      <point x="271" y="874" type="line"/>
      <point x="266" y="834"/>
      <point x="263" y="793"/>
      <point x="263" y="750" type="curve" smooth="yes"/>
      <point x="263" y="708"/>
      <point x="266" y="666"/>
      <point x="271" y="626" type="curve"/>
      <point x="110" y="626" type="line"/>
      <point x="105" y="584" type="line"/>
      <point x="277" y="584" type="line"/>
      <point x="341" y="218"/>
      <point x="617" y="-30"/>
      <point x="986" y="-30" type="curve"/>
      <point x="986" y="12" type="line"/>
      <point x="643" y="12"/>
      <point x="385" y="243"/>
      <point x="322" y="584" type="curve"/>
      <point x="846" y="584" type="line"/>
      <point x="851" y="626" type="line"/>
      <point x="316" y="626" type="line"/>
      <point x="311" y="666"/>
      <point x="308" y="707"/>
      <point x="308" y="749" type="curve" smooth="yes"/>
      <point x="308" y="792"/>
      <point x="311" y="834"/>
      <point x="316" y="874" type="curve"/>
    </contour>
  </outline>
</glyph>
<glyph name="partialdiff" format="2">
  <advance width="1204"/>
  <unicode hex="2202"/>
  <outline>
    <contour>
      <point x="307" y="1247" type="line"/>
      <point x="335" y="1388"/>
      <point x="458" y="1488"/>
      <point x="603" y="1488" type="curve" smooth="yes"/>
      <point x="840" y="1488"/>
      <point x="1019" y="1222"/>
      <point x="1049" y="848" type="curve"/>
      <point x="947" y="885"/>
      <point x="842" y="904"/>
      <point x="739" y="904" type="curve" smooth="yes"/>
      <point x="390" y="904"/>
      <point x="135" y="687"/>
      <point x="135" y="391" type="curve" smooth="yes"/>
      <point x="135" y="145"/>
      <point x="311" y="-30"/>
      <point x="559" y="-30" type="curve" smooth="yes"/>
      <point x="887" y="-30"/>
      <point x="1099" y="274"/>
      <point x="1099" y="739" type="curve" smooth="yes"/>
      <point x="1099" y="1198"/>
      <point x="892" y="1530"/>
      <point x="605" y="1530" type="curve" smooth="yes"/>
      <point x="437" y="1530"/>
      <point x="295" y="1416"/>
      <point x="265" y="1256" type="curve"/>
    </contour>
    <contour>
      <point x="1055" y="803" type="curve"/>
      <point x="1055" y="296"/>
      <point x="868" y="12"/>
      <point x="563" y="12" type="curve" smooth="yes"/>
      <point x="336" y="12"/>
      <point x="180" y="170"/>
      <point x="180" y="392" type="curve" smooth="yes"/>
      <point x="180" y="664"/>
      <point x="418" y="862"/>
      <point x="746" y="862" type="curve" smooth="yes"/>
      <point x="851" y="862"/>
      <point x="957" y="842"/>
    </contour>
  </outline>
</glyph>
<glyph name="Delta" format="2">
  <advance width="1224"/>
  <unicode hex="2206"/>
  <outline>
    <contour>
      <point x="1098" y="0" type="line"/>
      <point x="1119" y="38" type="line"/>
      <point x="636" y="1130" type="line"/>
      <point x="588" y="1130" type="line"/>
      <point x="105" y="38" type="line"/>
      <point x="126" y="0" type="line"/>
    </contour>
    <contour>
      <point x="149" y="38" type="line"/>
      <point x="612" y="1082" type="line"/>
      <point x="1074" y="38" type="line"/>
    </contour>
  </outline>
</glyph>
<glyph name="summation" format="1">
  <advance width="1305"/>
  <unicode hex="2211"/>
  <outline>
    <contour>
      <point x="1130" y="0" type="line" name="ab01"/>
      <point x="1130" y="42" type="line"/>
      <point x="239" y="42" type="line"/>
      <point x="744" y="750" type="line"/>
      <point x="239" y="1458" type="line"/>
      <point x="1130" y="1458" type="line" name="sv01"/>
      <point x="1130" y="1500" type="line"/>
      <point x="185" y="1500" type="line" name="at01"/>
      <point x="185" y="1458" type="line"/>
      <point x="690" y="750" type="line"/>
      <point x="185" y="42" type="line"/>
      <point x="185" y="0" type="line"/>
    </contour>
  </outline>
</glyph>
<glyph name="minus" format="2">
  <advance width="1170"/>
  <unicode hex="2212"/>
  <outline>
    <contour>
      <point x="985" y="486" type="line"/>
      <point x="985" y="524" type="line"/>
      <point x="185" y="524" type="line" name="dv02"/>
      <point x="185" y="486" type="line" name="dv01"/>
    </contour>
  </outline>
</glyph>
<glyph name="uni2219" format="2">
  <advance width="434"/>
  <unicode hex="2219"/>
  <outline>
    <contour>
      <point x="217" y="488" type="curve" smooth="yes"/>
      <point x="241" y="488"/>
      <point x="259" y="506"/>
      <point x="259" y="530" type="curve" smooth="yes"/>
      <point x="259" y="553"/>
      <point x="241" y="572"/>
      <point x="217" y="572" type="curve" smooth="yes"/>
      <point x="193" y="572"/>
      <point x="175" y="553"/>
      <point x="175" y="530" type="curve" smooth="yes"/>
      <point x="175" y="506"/>
      <point x="193" y="488"/>
    </contour>
  </outline>
</glyph>
<glyph name="radical" format="1">
  <advance width="1137"/>
  <unicode hex="221A"/>
  <outline>
    <contour>
      <point x="636" y="0" type="line" name="ab01"/>
      <point x="982" y="1560" type="line"/>
      <point x="937" y="1560" type="line" name="at02"/>
      <point x="607" y="78" type="line"/>
      <point x="320" y="772" type="line"/>
      <point x="155" y="772" type="line"/>
      <point x="155" y="730" type="line"/>
      <point x="290" y="730" type="line"/>
      <point x="592" y="0" type="line" name="ab01"/>
    </contour>
  </outline>
</glyph>
<glyph name="integral" format="2">
  <advance width="820"/>
  <unicode hex="222B"/>
  <outline>
    <contour>
      <point x="85" y="-320" type="line"/>
      <point x="329" y="-320"/>
      <point x="473" y="-147"/>
      <point x="473" y="122" type="curve"/>
      <point x="391" y="1395" type="line"/>
      <point x="391" y="1631"/>
      <point x="516" y="1778"/>
      <point x="735" y="1778" type="curve"/>
      <point x="735" y="1820" type="line"/>
      <point x="491" y="1820"/>
      <point x="347" y="1653"/>
      <point x="347" y="1395" type="curve"/>
      <point x="429" y="122" type="line"/>
      <point x="429" y="-124"/>
      <point x="304" y="-278"/>
      <point x="85" y="-278" type="curve"/>
    </contour>
  </outline>
</glyph>
<glyph name="notequal" format="2">
  <advance width="1325"/>
  <unicode hex="2260"/>
  <outline>
    <contour>
      <point x="452" y="-85" type="line" name="av01"/>
      <point x="575" y="211" type="line"/>
      <point x="1140" y="211" type="line"/>
      <point x="1140" y="253" type="line"/>
      <point x="592" y="253" type="line"/>
      <point x="777" y="698" type="line"/>
      <point x="1140" y="698" type="line"/>
      <point x="1140" y="740" type="line"/>
      <point x="794" y="740" type="line"/>
      <point x="917" y="1035" type="line" name="at01"/>
      <point x="873" y="1035" type="line"/>
      <point x="750" y="740" type="line"/>
      <point x="185" y="740" type="line"/>
      <point x="185" y="698" type="line"/>
      <point x="733" y="698" type="line"/>
      <point x="548" y="253" type="line"/>
      <point x="185" y="253" type="line"/>
      <point x="185" y="211" type="line"/>
      <point x="531" y="211" type="line"/>
      <point x="408" y="-85" type="line"/>
    </contour>
  </outline>
</glyph>
<glyph name="lessequal" format="2">
  <advance width="1325"/>
  <unicode hex="2264"/>
  <outline>
    <contour>
      <point x="1138" y="180" type="line"/>
      <point x="1138" y="229" type="line"/>
      <point x="222" y="695" type="line"/>
      <point x="1138" y="1151" type="line"/>
      <point x="1138" y="1200" type="line"/>
      <point x="185" y="725" type="line"/>
      <point x="185" y="665" type="line"/>
    </contour>
    <contour>
      <point x="1140" y="0" type="line"/>
      <point x="1140" y="42" type="line"/>
      <point x="185" y="42" type="line"/>
      <point x="185" y="0" type="line"/>
    </contour>
  </outline>
</glyph>
<glyph name="greaterequal" format="1">
  <advance width="1325"/>
  <unicode hex="2265"/>
  <outline>
    <contour>
      <point x="187" y="180" type="line"/>
      <point x="1140" y="665" type="line"/>
      <point x="1140" y="725" type="line"/>
      <point x="187" y="1200" type="line"/>
      <point x="187" y="1151" type="line"/>
      <point x="1102" y="695" type="line"/>
      <point x="187" y="229" type="line"/>
    </contour>
    <contour>
      <point x="1140" y="0" type="line"/>
      <point x="1140" y="42" type="line"/>
      <point x="185" y="42" type="line"/>
      <point x="185" y="0" type="line"/>
    </contour>
  </outline>
</glyph>
<glyph name="lozenge" format="2">
  <advance width="1162"/>
  <unicode hex="25CA"/>
  <outline>
    <contour>
      <point x="597" y="-20" type="line"/>
      <point x="1057" y="661" type="line"/>
      <point x="598" y="1341" type="line"/>
      <point x="565" y="1341" type="line"/>
      <point x="105" y="660" type="line"/>
      <point x="564" y="-20" type="line"/>
    </contour>
    <contour>
      <point x="580" y="28" type="line"/>
      <point x="154" y="660" type="line"/>
      <point x="582" y="1292" type="line"/>
      <point x="1008" y="661" type="line"/>
    </contour>
  </outline>
</glyph>
<glyph name="f_f_l" format="2">
  <advance width="1616"/>
  <unicode hex="FB04"/>
  <outline>
    <contour>
      <point x="1431" y="0" type="line"/>
      <point x="1431" y="1184" type="line" smooth="yes" name="av01"/>
      <point x="1431" y="1394"/>
      <point x="1295" y="1530"/>
      <point x="1087" y="1530" type="curve" smooth="yes"/>
      <point x="879" y="1530"/>
      <point x="743" y="1393"/>
      <point x="743" y="1184" type="curve" smooth="yes"/>
      <point x="743" y="1000" type="line"/>
      <point x="341" y="1000" type="line"/>
      <point x="341" y="1267" type="line" smooth="yes"/>
      <point x="341" y="1403"/>
      <point x="418" y="1492"/>
      <point x="535" y="1492" type="curve" smooth="yes"/>
      <point x="579" y="1492"/>
      <point x="625" y="1479"/>
      <point x="672" y="1454" type="curve"/>
      <point x="688" y="1489" type="line"/>
      <point x="637" y="1516"/>
      <point x="583" y="1530"/>
      <point x="532" y="1530" type="curve" smooth="yes"/>
      <point x="392" y="1530"/>
      <point x="300" y="1429"/>
      <point x="300" y="1274" type="curve" smooth="yes"/>
      <point x="300" y="1000" type="line"/>
      <point x="125" y="1000" type="line"/>
      <point x="125" y="962" type="line"/>
      <point x="300" y="962" type="line"/>
      <point x="300" y="0" type="line"/>
      <point x="341" y="0" type="line"/>
      <point x="341" y="962" type="line"/>
      <point x="743" y="962" type="line"/>
      <point x="743" y="0" type="line"/>
      <point x="784" y="0" type="line"/>
      <point x="784" y="962" type="line"/>
      <point x="1104" y="962" type="line"/>
      <point x="1104" y="1000" type="line"/>
      <point x="784" y="1000" type="line"/>
      <point x="784" y="1176" type="line" smooth="yes"/>
      <point x="784" y="1368"/>
      <point x="903" y="1492"/>
      <point x="1087" y="1492" type="curve" smooth="yes"/>
      <point x="1271" y="1492"/>
      <point x="1390" y="1368"/>
      <point x="1390" y="1176" type="curve" smooth="yes" name="dh01"/>
      <point x="1390" y="0" type="line" name="ab01"/>
    </contour>
  </outline>
</glyph>
<glyph name=".notdef" format="2">
  <advance width="1310"/>
  <outline>
    <contour>
      <point x="1115" y="0" type="line"/>
      <point x="1115" y="1500" type="line"/>
      <point x="195" y="1500" type="line"/>
      <point x="195" y="0" type="line"/>
    </contour>
    <contour>
      <point x="978" y="1420" type="line"/>
      <point x="655" y="844" type="line"/>
      <point x="332" y="1420" type="line"/>
    </contour>
    <contour>
      <point x="1015" y="203" type="line"/>
      <point x="701" y="762" type="line"/>
      <point x="1015" y="1322" type="line"/>
    </contour>
    <contour>
      <point x="295" y="1322" type="line"/>
      <point x="609" y="762" type="line"/>
      <point x="295" y="203" type="line"/>
    </contour>
    <contour>
      <point x="318" y="80" type="line"/>
      <point x="655" y="681" type="line"/>
      <point x="992" y="80" type="line"/>
    </contour>
  </outline>
</glyph>
<glyph name="periodcentered.loclCAT.case" format="2">
  <outline>
    <contour>
      <point x="-385" y="700" type="curve" smooth="yes"/>
      <point x="-356" y="700"/>
      <point x="-335" y="721"/>
      <point x="-335" y="750" type="curve" smooth="yes"/>
      <point x="-335" y="777"/>
      <point x="-356" y="800"/>
      <point x="-385" y="800" type="curve" smooth="yes"/>
      <point x="-414" y="800"/>
      <point x="-435" y="777"/>
      <point x="-435" y="750" type="curve" smooth="yes"/>
      <point x="-435" y="721"/>
      <point x="-414" y="700"/>
    </contour>
  </outline>
</glyph>
<glyph name="periodcentered.loclCAT" format="2">
  <advance width="210"/>
  <outline>
    <contour>
      <point x="105" y="720" type="curve" smooth="yes"/>
      <point x="134" y="720"/>
      <point x="155" y="741"/>
      <point x="155" y="770" type="curve" smooth="yes"/>
      <point x="155" y="797"/>
      <point x="134" y="820"/>
      <point x="105" y="820" type="curve" smooth="yes"/>
      <point x="76" y="820"/>
      <point x="55" y="797"/>
      <point x="55" y="770" type="curve" smooth="yes"/>
      <point x="55" y="741"/>
      <point x="76" y="720"/>
    </contour>
  </outline>
</glyph>
